<?xml version="1.0" encoding="UTF-8"?>
<svg width="41px" height="36px" viewBox="0 0 41 36" version="1.1" xmlns="http://www.w3.org/2000/svg" xmlns:xlink="http://www.w3.org/1999/xlink">
    <!-- Generator: Sketch 53.1 (72631) - https://sketchapp.com -->
    <title>universeIcons/Milkyway/Utility/Basic Information</title>
    <desc>Created with Sketch.</desc>
    <defs>
        <path d="M15,24.2222222 C15,22.9949228 16.0925895,22 17.4420508,22 L41.7902582,22 C43.1389656,22 44.232309,22.9863662 44.232309,24.2222222 C44.232309,25.4495217 43.1397195,26.4444444 41.7902582,26.4444444 L17.4420508,26.4444444 C16.0933434,26.4444444 15,25.4580782 15,24.2222222 Z M15,10.2222222 C15,8.99492278 16.0925895,8 17.4420508,8 L41.7902582,8 C43.1389656,8 44.232309,8.98636627 44.232309,10.2222222 C44.232309,11.4495217 43.1397195,12.4444444 41.7902582,12.4444444 L17.4420508,12.4444444 C16.0933434,12.4444444 15,11.4580782 15,10.2222222 Z M15,38.2222222 C15,36.9949228 16.0925895,36 17.4420508,36 L41.7902582,36 C43.1389656,36 44.232309,36.9863662 44.232309,38.2222222 C44.232309,39.4495217 43.1397195,40.4444444 41.7902582,40.4444444 L17.4420508,40.4444444 C16.0933434,40.4444444 15,39.4580782 15,38.2222222 Z M8,28 C5.790861,28 4,26.209139 4,24 C4,21.790861 5.790861,20 8,20 C10.209139,20 12,21.790861 12,24 C12,26.209139 10.209139,28 8,28 Z M8,14 C5.790861,14 4,12.209139 4,10 C4,7.790861 5.790861,6 8,6 C10.209139,6 12,7.790861 12,10 C12,12.209139 10.209139,14 8,14 Z M8,42 C5.790861,42 4,40.209139 4,38 C4,35.790861 5.790861,34 8,34 C10.209139,34 12,35.790861 12,38 C12,40.209139 10.209139,42 8,42 Z" id="path-1"></path>
    </defs>
    <g id="Milkyway-Icons" stroke="none" stroke-width="1" fill="none" fill-rule="evenodd">
        <g id="Icons-in-use" transform="translate(-1256.000000, -309.000000)">
            <g id="Icons/Milkyway/Utility/Basic-Information" transform="translate(1252.000000, 303.000000)">
                <mask id="mask-2" fill="white">
                    <use xlink:href="#path-1"></use>
                </mask>
                <use fill="#000000" fill-rule="nonzero" xlink:href="#path-1"></use>
                <g id="Colour/Ink-Light" mask="url(#mask-2)" fill="#6F7881" fill-rule="evenodd">
                    <rect id="Color/Ink/Light" x="0" y="0" width="48" height="48"></rect>
                </g>
            </g>
        </g>
    </g>
</svg>