<?xml version="1.0" encoding="UTF-8"?>
<svg width="40px" height="40px" viewBox="0 0 40 40" version="1.1" xmlns="http://www.w3.org/2000/svg" xmlns:xlink="http://www.w3.org/1999/xlink">
    <!-- Generator: Sketch 53.1 (72631) - https://sketchapp.com -->
    <title>universeIcons/Milkyway/Utility/Checkmark</title>
    <desc>Created with Sketch.</desc>
    <defs>
        <path d="M24,44 C12.954305,44 4,35.045695 4,24 C4,12.954305 12.954305,4 24,4 C35.045695,4 44,12.954305 44,24 C44,35.045695 35.045695,44 24,44 Z M24,40 C32.836556,40 40,32.836556 40,24 C40,15.163444 32.836556,8 24,8 C15.163444,8 8,15.163444 8,24 C8,32.836556 15.163444,40 24,40 Z M29.7943285,15.9091515 C30.3751234,15.0289954 31.5594562,14.7863168 32.4396095,15.367114 C33.3197621,15.9479108 33.5624395,17.1322462 32.981645,18.0124017 L23.0066007,33.1422433 C22.2830245,34.238775 20.6939542,34.2939515 19.8960641,33.250249 L14.3925807,26.0512631 C13.7521366,25.2135122 13.9120828,24.0151966 14.749831,23.37475 C15.5875798,22.7343028 16.7858927,22.8942499 17.4263374,23.7320015 L21.2985875,28.797207 L29.7943285,15.9091515 Z" id="path-1"></path>
    </defs>
    <g id="Milkyway-Icons" stroke="none" stroke-width="1" fill="none" fill-rule="evenodd">
        <g id="Icons-in-use" transform="translate(-1642.000000, -214.000000)">
            <g id="Icons/Milkyway/Utility/Checkmark" transform="translate(1638.000000, 210.000000)">
                <mask id="mask-2" fill="white">
                    <use xlink:href="#path-1"></use>
                </mask>
                <use id="Combined-Shape" fill="#6F7881" fill-rule="evenodd" xlink:href="#path-1"></use>
                <g id="Colour/Ink-Light" mask="url(#mask-2)" fill="#6F7881" fill-rule="evenodd">
                    <rect id="Color/Ink/Light" x="0" y="0" width="48" height="48"></rect>
                </g>
            </g>
        </g>
    </g>
</svg>