<?xml version="1.0" encoding="UTF-8"?>
<svg width="40px" height="42px" viewBox="0 0 40 42" version="1.1" xmlns="http://www.w3.org/2000/svg" xmlns:xlink="http://www.w3.org/1999/xlink">
    <!-- Generator: Sketch 53.1 (72631) - https://sketchapp.com -->
    <title>universeIcons/Milkyway/Utility/Date</title>
    <desc>Created with Sketch.</desc>
    <defs>
        <path d="M36,10.0002124 C36,8.89502408 35.1073867,8 34.0098214,8 C34,9.10474188 33.1122704,10 32,10 C30.8954305,10 30,9.11256671 30,8.00038502 L26,8 C26,9.10474188 25.1122704,10 24,10 C22.8954305,10 22,9.11256671 22,8.00038502 L18,8 C18,9.10474188 17.1122704,10 16,10 C14.8954305,10 14,9.11256671 14,8.00038502 L10,8 C10,9.10474188 9.11227036,10 8,10 C6.8954305,10 6,9.11256671 6,8.00038502 C4.89145651,8 4,8.89388669 4,10.0002124 L4,14 L36,14 L36,10.0002124 Z M4,18 L4,35.9997876 C4,37.1049759 4.89261326,38 5.99017859,38 L34.0098214,38 C35.1085435,38 36,37.1061133 36,35.9997876 L36,18 L4,18 Z M40,10.0002124 L40,35.9997876 C40,39.3128183 37.3201238,42 34.0098214,42 L5.99017859,42 C2.68105549,42 0,39.3117034 0,35.9997876 L0,10.0002124 C0,6.68718171 2.67987615,4 5.99017859,4 L6,1.99961498 C6,0.895258123 6.88772964,0 8,0 C9.1045695,0 10,0.88743329 10,1.99961498 L10,4 L14,4 L14,1.99961498 C14,0.895258123 14.8877296,0 16,0 C17.1045695,0 18,0.88743329 18,1.99961498 L18,4 L22,4 L22,1.99961498 C22,0.895258123 22.8877296,0 24,0 C25.1045695,0 26,0.88743329 26,1.99961498 L26,4 L30,4 L30,1.99961498 C30,0.895258123 30.8877296,0 32,0 C33.1045695,0 34,0.88743329 34,1.99961498 L34,4 C37.3189445,4 40,6.68829665 40,10.0002124 Z" id="path-1"></path>
    </defs>
    <g id="Milkyway-Icons" stroke="none" stroke-width="1" fill="none" fill-rule="evenodd">
        <g id="Icons-in-use" transform="translate(-873.000000, -117.000000)">
            <g id="Icons/Milkyway/Utility/Date" transform="translate(869.000000, 115.000000)">
                <g id="Date">
                    <g id="Colour/Ink-Light" transform="translate(4.000000, 2.000000)">
                        <mask id="mask-2" fill="white">
                            <use xlink:href="#path-1"></use>
                        </mask>
                        <use id="Mask" fill="#000000" xlink:href="#path-1"></use>
                        <g mask="url(#mask-2)" fill="#6F7881" id="Color/Ink/Light">
                            <g transform="translate(-4.000000, -2.000000)">
                                <rect x="0" y="0" width="48" height="48"></rect>
                            </g>
                        </g>
                    </g>
                </g>
            </g>
        </g>
    </g>
</svg>