<?xml version="1.0" encoding="UTF-8"?>
<svg width="42px" height="42px" viewBox="0 0 42 42" version="1.1" xmlns="http://www.w3.org/2000/svg" xmlns:xlink="http://www.w3.org/1999/xlink">
    <!-- Generator: Sketch 53.1 (72631) - https://sketchapp.com -->
    <title>universeIcons/Milkyway/Utility/Discounts</title>
    <desc>Created with Sketch.</desc>
    <defs>
        <path d="M24.8395862,43.1922231 C24.3758955,42.9561815 23.625779,42.9553291 23.1604138,43.1922231 L20.4076653,44.5935092 C18.5475373,45.540407 16.2606283,44.7791094 15.2878375,42.8697991 L13.8464385,40.0407448 C13.6045355,39.5659584 12.9981596,39.1061229 12.4879595,39.0129245 L9.4811749,38.4636744 C7.43566465,38.0900205 6.01021838,36.0733886 6.29931103,33.9449744 L6.73160614,30.7622471 C6.80388954,30.2300682 6.57286926,29.4868912 6.21271334,29.099199 L4.07441631,26.7974152 C2.63917977,25.2524455 2.64454521,22.7417789 4.07441631,21.2025848 L6.21271334,18.900801 C6.57157332,18.5145038 6.80415058,17.7718536 6.73160614,17.2377529 L6.29931103,14.0550256 C6.01109567,11.9330704 7.43326071,9.91041866 9.4811749,9.53632562 L12.4879595,8.98707548 C12.9963237,8.89421244 13.6036619,8.43575622 13.8464385,7.95925522 L15.2878375,5.1302009 C16.2553123,3.23132434 18.5499075,2.46079962 20.4076653,3.40649082 L23.1604138,4.8077769 C23.6241045,5.04381853 24.374221,5.04467094 24.8395862,4.8077769 L27.5923347,3.40649082 C29.4524627,2.45959305 31.7393717,3.2208906 32.7121625,5.1302009 L34.1535615,7.95925522 C34.3954645,8.43404164 35.0018404,8.89387709 35.5120405,8.98707548 L38.5188251,9.53632562 C40.5643353,9.90997953 41.9897816,11.9266114 41.700689,14.0550256 L41.2683939,17.2377529 C41.1961105,17.7699318 41.4271307,18.5131088 41.7872867,18.900801 L43.9255837,21.2025848 C45.3608202,22.7475545 45.3554548,25.2582211 43.9255837,26.7974152 L41.7872867,29.099199 C41.4284267,29.4854962 41.1958494,30.2281464 41.2683939,30.7622471 L41.700689,33.9449744 C41.9889043,36.0669296 40.5667393,38.0895813 38.5188251,38.4636744 L35.5120405,39.0129245 C35.0036763,39.1057876 34.3963381,39.5642438 34.1535615,40.0407448 L32.7121625,42.8697991 C31.7446877,44.7686757 29.4500925,45.5392004 27.5923347,44.5935092 L24.8395862,43.1922231 Z M29.3904484,41.062246 L30.8318474,38.2331917 C31.6142529,36.6975533 33.2055149,35.4944631 34.8586171,35.1924905 C34.8586171,35.1924905 37.990263,34.5371281 37.983084,34.4842739 L37.5507889,31.3015466 C37.318366,29.590357 37.9219442,27.6581082 39.0792368,26.412333 C39.0792368,26.412333 41.2554656,23.9302827 41.2175339,23.8894508 L39.0792368,21.587667 C37.9208999,20.3407676 37.3185749,18.4081044 37.5507889,16.6984534 C37.5507889,16.6984534 37.9248265,13.3676148 37.8654017,13.3567596 L34.8586171,12.8075095 C33.2040209,12.505264 31.6135495,11.3010662 30.8318474,9.76680832 C30.8318474,9.76680832 29.2907447,6.86668661 29.2511484,6.88684312 L26.4983999,8.2881292 C24.9873117,9.05734836 23.0113263,9.05665501 21.5016001,8.2881292 C21.5016001,8.2881292 18.6293716,6.89885313 18.6095516,6.937754 L17.1681526,9.76680832 C16.3857471,11.3024467 14.7944851,12.5055369 13.1413829,12.8075095 L10.1345983,13.3567596 C10.0770196,13.3672776 10.4492111,16.6984534 10.4492111,16.6984534 C10.681634,18.409643 10.0780558,20.3418918 8.92076317,21.587667 L6.78246614,23.8894508 C6.74462676,23.9301833 8.92076317,26.412333 8.92076317,26.412333 C10.0791001,27.6592324 10.6814251,29.5918956 10.4492111,31.3015466 L10.016916,34.4842739 C10.0094594,34.5391717 13.1413829,35.1924905 13.1413829,35.1924905 C14.7959791,35.494736 16.3864505,36.6989338 17.1681526,38.2331917 C17.1681526,38.2331917 18.7092553,41.1333134 18.7488516,41.1131569 L21.5016001,39.7118708 C23.0126883,38.9426516 24.9886737,38.943345 26.4983999,39.7118708 C26.4983999,39.7118708 29.3706284,41.1011469 29.3904484,41.062246 Z M19.6961803,31.0217594 C18.9631562,31.7793093 17.7746892,31.7793093 17.041665,31.0217594 C16.3086408,30.2642095 16.3086408,29.0359785 17.041665,28.2784287 L28.3038197,16.6394621 C29.0368438,15.8819122 30.2253108,15.8819122 30.958335,16.6394621 C31.6913592,17.397012 31.6913592,18.625243 30.958335,19.3827928 L19.6961803,31.0217594 Z M19.3074356,21.890783 C17.7524565,21.890783 16.4918969,20.5880473 16.4918969,18.9810413 C16.4918969,17.3740354 17.7524565,16.0712997 19.3074356,16.0712997 C20.8624146,16.0712997 22.1229742,17.3740354 22.1229742,18.9810413 C22.1229742,20.5880473 20.8624146,21.890783 19.3074356,21.890783 Z M28.6925644,31.5899218 C27.1375854,31.5899218 25.8770258,30.2871861 25.8770258,28.6801801 C25.8770258,27.0731742 27.1375854,25.7704385 28.6925644,25.7704385 C30.2475435,25.7704385 31.5081031,27.0731742 31.5081031,28.6801801 C31.5081031,30.2871861 30.2475435,31.5899218 28.6925644,31.5899218 Z" id="path-1"></path>
    </defs>
    <g id="Milkyway-Icons" stroke="none" stroke-width="1" fill="none" fill-rule="evenodd">
        <g id="Icons-in-use" transform="translate(-966.000000, -213.000000)">
            <g id="Icons/Milkyway/Utility/Discounts" transform="translate(963.000000, 210.000000)">
                <mask id="mask-2" fill="white">
                    <use xlink:href="#path-1"></use>
                </mask>
                <use fill="#6F7881" fill-rule="evenodd" xlink:href="#path-1"></use>
                <g id="Colour/Ink-Light" mask="url(#mask-2)" fill="#6F7881" fill-rule="evenodd">
                    <rect id="Color/Ink/Light" x="0" y="0" width="48" height="48"></rect>
                </g>
            </g>
        </g>
    </g>
</svg>