<?xml version="1.0" encoding="UTF-8"?>
<svg width="40px" height="40px" viewBox="0 0 40 40" version="1.1" xmlns="http://www.w3.org/2000/svg" xmlns:xlink="http://www.w3.org/1999/xlink">
    <!-- Generator: Sketch 53.1 (72631) - https://sketchapp.com -->
    <title>universeIcons/Milkyway/Utility/Error</title>
    <desc>Created with Sketch.</desc>
    <defs>
        <path d="M24,44 C12.954305,44 4,35.045695 4,24 C4,12.954305 12.954305,4 24,4 C35.045695,4 44,12.954305 44,24 C44,35.045695 35.045695,44 24,44 Z M24,40 C32.836556,40 40,32.836556 40,24 C40,15.163444 32.836556,8 24,8 C15.163444,8 8,15.163444 8,24 C8,32.836556 15.163444,40 24,40 Z M21.55,19.5224244 L20.4840783,20.5896698 C19.9158285,21.1586252 18.9928392,21.1619774 18.4256218,20.5940556 C17.8544497,20.0221743 17.8603655,19.1033869 18.4300022,18.5330429 C18.4300022,18.5330429 22.530855,14.4270991 22.533774,14.4241749 C22.8186289,14.1389663 23.1896598,13.9974701 23.5618818,14.0000342 C23.9336037,13.9997978 24.3049702,14.1409436 24.5922306,14.4285607 L28.691622,18.5330429 C29.2598718,19.1019983 29.2632199,20.0261338 28.6960024,20.5940556 C28.1248304,21.1659369 27.2071825,21.1600138 26.6375459,20.5896698 L25.55,19.5007734 L25.55,31.6261756 C25.55,33.1305023 24.6545695,34.35 23.55,34.35 C22.4454305,34.35 21.55,33.1305023 21.55,31.6261756 L21.55,19.5224244 Z" id="path-1"></path>
    </defs>
    <g id="Milkyway-Icons" stroke="none" stroke-width="1" fill="none" fill-rule="evenodd">
        <g id="Icons-in-use" transform="translate(-1833.000000, -214.000000)">
            <g id="Icons/Milkyway/Utility/Upload" transform="translate(1829.000000, 210.000000)">
                <mask id="mask-2" fill="white">
                    <use xlink:href="#path-1"></use>
                </mask>
                <use id="Icons/Milkyway/Utility/Error" fill="#000000" fill-rule="evenodd" xlink:href="#path-1"></use>
                <g id="Colour/Ink-Light" mask="url(#mask-2)" fill="#6F7881" fill-rule="evenodd">
                    <rect id="Color/Ink/Light" x="0" y="0" width="48" height="48"></rect>
                </g>
            </g>
        </g>
    </g>
</svg>