<?xml version="1.0" encoding="UTF-8"?>
<svg width="40px" height="40px" viewBox="0 0 40 40" version="1.1" xmlns="http://www.w3.org/2000/svg" xmlns:xlink="http://www.w3.org/1999/xlink">
    <!-- Generator: Sketch 53.1 (72631) - https://sketchapp.com -->
    <title>universeIcons/Milkyway/Utility/Exclamation</title>
    <desc>Created with Sketch.</desc>
    <defs>
        <path d="M20,40 C8.954305,40 0,31.045695 0,20 C0,8.954305 8.954305,0 20,0 C31.045695,0 40,8.954305 40,20 C40,31.045695 31.045695,40 20,40 Z M20,36 C28.836556,36 36,28.836556 36,20 C36,11.163444 28.836556,4 20,4 C11.163444,4 4,11.163444 4,20 C4,28.836556 11.163444,36 20,36 Z M20,31 C18.3431458,31 17,29.6568542 17,28 C17,26.3431458 18.3431458,25 20,25 C21.6568542,25 23,26.3431458 23,28 C23,29.6568542 21.6568542,31 20,31 Z M22,21 C22,22.1045695 21.1045695,23 20,23 C18.8954305,23 18,22.1045695 18,21 L18,11.5262976 C18,10.4217281 18.8954305,9.52629759 20,9.52629759 C21.1045695,9.52629759 22,10.4217281 22,11.5262976 L22,21 Z" id="path-1"></path>
    </defs>
    <g id="Milkyway-Icons" stroke="none" stroke-width="1" fill="none" fill-rule="evenodd">
        <g id="Icons-in-use" transform="translate(-1545.000000, -214.000000)">
            <g id="Icons/Milkyway/Utility/Exclamation" transform="translate(1541.000000, 210.000000)">
                <g id="Exclamation">
                    <g id="Colour/Ink-Light" transform="translate(4.000000, 4.000000)">
                        <mask id="mask-2" fill="white">
                            <use xlink:href="#path-1"></use>
                        </mask>
                        <use id="Mask" fill="#000000" xlink:href="#path-1"></use>
                        <g mask="url(#mask-2)" fill="#6F7881" id="Color/Ink/Light">
                            <g transform="translate(-4.000000, -4.000000)">
                                <rect x="0" y="0" width="48" height="48"></rect>
                            </g>
                        </g>
                    </g>
                </g>
            </g>
        </g>
    </g>
</svg>