<?xml version="1.0" encoding="UTF-8"?>
<svg width="40px" height="36px" viewBox="0 0 40 36" version="1.1" xmlns="http://www.w3.org/2000/svg" xmlns:xlink="http://www.w3.org/1999/xlink">
    <!-- Generator: Sketch 53.1 (72631) - https://sketchapp.com -->
    <title>universeIcons/Milkyway/Utility/Filter</title>
    <desc>Created with Sketch.</desc>
    <defs>
        <path d="M26,26 C26,28.6124377 24.3303847,30.8349158 22,31.6585886 L22,34.0002927 C22,35.1047006 21.1122704,36 20,36 C18.8954305,36 18,35.1101074 18,34.0002927 L18,31.6585886 C15.6696153,30.8349158 14,28.6124377 14,26 C14,23.3875623 15.6696153,21.1650842 18,20.3414114 L18,1.99970728 C18,0.895299444 18.8877296,0 20,0 C21.1045695,0 22,0.889892578 22,1.99970728 L22,20.3414114 C24.3303847,21.1650842 26,23.3875623 26,26 Z M40,14 C40,16.6124377 38.3303847,18.8349158 36,19.6585886 L36,34.0002927 C36,35.1047006 35.1122704,36 34,36 C32.8954305,36 32,35.1101074 32,34.0002927 L32,19.6585886 C29.6696153,18.8349158 28,16.6124377 28,14 C28,11.3875623 29.6696153,9.16508423 32,8.34141142 L32,1.99970728 C32,0.895299444 32.8877296,0 34,0 C35.1045695,0 36,0.889892578 36,1.99970728 L36,8.34141142 C38.3303847,9.16508423 40,11.3875623 40,14 Z M12,10 C12,12.6124377 10.3303847,14.8349158 8,15.6585886 L8,34.0002927 C8,35.1047006 7.11227036,36 6,36 C4.8954305,36 4,35.1101074 4,34.0002927 L4,15.6585886 C1.66961525,14.8349158 0,12.6124377 0,10 C0,7.38756235 1.66961525,5.16508423 4,4.34141142 L4,1.99970728 C4,0.895299444 4.88772964,0 6,0 C7.1045695,0 8,0.889892578 8,1.99970728 L8,4.34141142 C10.3303847,5.16508423 12,7.38756235 12,10 Z M6,12 C7.1045695,12 8,11.1045695 8,10 C8,8.8954305 7.1045695,8 6,8 C4.8954305,8 4,8.8954305 4,10 C4,11.1045695 4.8954305,12 6,12 Z M20,28 C21.1045695,28 22,27.1045695 22,26 C22,24.8954305 21.1045695,24 20,24 C18.8954305,24 18,24.8954305 18,26 C18,27.1045695 18.8954305,28 20,28 Z M34,16 C35.1045695,16 36,15.1045695 36,14 C36,12.8954305 35.1045695,12 34,12 C32.8954305,12 32,12.8954305 32,14 C32,15.1045695 32.8954305,16 34,16 Z" id="path-1"></path>
    </defs>
    <g id="Milkyway-Icons" stroke="none" stroke-width="1" fill="none" fill-rule="evenodd">
        <g id="Icons-in-use" transform="translate(-1161.000000, -121.000000)">
            <g id="Icons/Milkyway/Utility/Filter" transform="translate(1157.000000, 115.000000)">
                <g id="Filter">
                    <g id="Colour/Ink-Light" transform="translate(4.000000, 6.000000)">
                        <mask id="mask-2" fill="white">
                            <use xlink:href="#path-1"></use>
                        </mask>
                        <use id="Mask" fill="#000000" xlink:href="#path-1"></use>
                        <g mask="url(#mask-2)" fill="#6F7881" id="Color/Ink/Light">
                            <g transform="translate(-4.000000, -6.000000)">
                                <rect x="0" y="0" width="48" height="48"></rect>
                            </g>
                        </g>
                    </g>
                </g>
            </g>
        </g>
    </g>
</svg>