<?xml version="1.0" encoding="UTF-8"?>
<svg width="40px" height="40px" viewBox="0 0 40 40" version="1.1" xmlns="http://www.w3.org/2000/svg" xmlns:xlink="http://www.w3.org/1999/xlink">
    <!-- Generator: Sketch 53.1 (72631) - https://sketchapp.com -->
    <title>universeIcons/Milkyway/Utility/Help</title>
    <desc>Created with Sketch.</desc>
    <defs>
        <path d="M20,40 C8.954305,40 0,31.045695 0,20 C0,8.954305 8.954305,0 20,0 C31.045695,0 40,8.954305 40,20 C40,31.045695 31.045695,40 20,40 Z M20,36 C28.836556,36 36,28.836556 36,20 C36,11.163444 28.836556,4 20,4 C11.163444,4 4,11.163444 4,20 C4,28.836556 11.163444,36 20,36 Z M20,12 C17.790861,12 16,13.790861 16,16 C16,17.1045695 15.1045695,18 14,18 C12.8954305,18 12,17.1045695 12,16 C12,11.581722 15.581722,8 20,8 C24.4634738,8 28.012207,11.2097645 28.012207,15.5961914 C28.012207,17.9928374 27.1709038,19.4604845 25.374542,21.0064998 C25.1900841,21.1652511 23.111035,22.8532638 23.0334705,22.9152857 C22.2003763,23.581442 22.026001,23.8825244 22.026001,24.8781738 C22.026001,25.9827433 21.1305705,26.8781738 20.026001,26.8781738 C18.9214315,26.8781738 18.026001,25.9827433 18.026001,24.8781738 C18.026001,22.5380386 18.8245169,21.1592941 20.53542,19.7912269 C20.4683882,19.8448267 22.6152566,18.1038253 22.765275,17.9747139 C23.7542455,17.1235694 24.012207,16.6735574 24.012207,15.5961914 C24.012207,13.5134611 22.3389161,12 20,12 Z M20,32 C18.8954305,32 18,31.1045695 18,30 C18,28.8954305 18.8954305,28 20,28 C21.1045695,28 22,28.8954305 22,30 C22,31.1045695 21.1045695,32 20,32 Z" id="path-1"></path>
    </defs>
    <g id="Milkyway-Icons" stroke="none" stroke-width="1" fill="none" fill-rule="evenodd">
        <g id="Icons-in-use" transform="translate(-1449.000000, -214.000000)">
            <g id="Icons/Milkyway/Utility/Help" transform="translate(1445.000000, 210.000000)">
                <g id="FAQ">
                    <g id="Colour/Ink-Light" transform="translate(4.000000, 4.000000)">
                        <mask id="mask-2" fill="white">
                            <use xlink:href="#path-1"></use>
                        </mask>
                        <use id="Mask" fill="#000000" xlink:href="#path-1"></use>
                        <g mask="url(#mask-2)" fill="#6F7881" id="Color/Ink/Light">
                            <g transform="translate(-4.000000, -4.000000)">
                                <rect x="0" y="0" width="48" height="48"></rect>
                            </g>
                        </g>
                    </g>
                </g>
            </g>
        </g>
    </g>
</svg>