<?xml version="1.0" encoding="UTF-8"?>
<svg width="43px" height="41px" viewBox="0 0 43 41" version="1.1" xmlns="http://www.w3.org/2000/svg" xmlns:xlink="http://www.w3.org/1999/xlink">
    <!-- Generator: Sketch 53.1 (72631) - https://sketchapp.com -->
    <title>universeIcons/Milkyway/Utility/Key</title>
    <desc>Created with Sketch.</desc>
    <defs>
        <path d="M4.06461848,32.5477713 L4.0929423,36.7809433 L8.376015,36.8096438 L9.1193069,33.9668256 C9.25785786,33.4369192 9.81184874,32.9215064 10.3735271,32.8123448 L12.9721531,32.3073045 L18.8435161,26.5557652 L21.9373986,23.5250232 C22.3332492,23.1372511 23.0658411,23.0056499 23.5747654,23.2209715 C23.5747654,23.2209715 23.768083,23.3315938 24.3479789,23.5082509 C27.8461681,24.5739246 31.8087012,23.7546706 34.5719955,21.0477701 C38.5453181,17.1555357 38.5345529,10.8344314 34.5479508,6.92918849 C30.5613486,3.02394557 24.1085547,3.0134001 20.135232,6.90563452 C16.9152833,10.05987 16.311825,14.8092297 18.320466,18.5752852 C19.5173288,19.7506876 19.5202101,21.6502406 18.3217188,22.8242728 L13.6061869,27.4435694 C12.4109886,28.6143759 10.4710443,28.613099 9.27255305,27.4461211 L4.06461848,32.5477713 Z M15.8595057,35.1357316 L13.2608798,35.6407719 C12.7067441,35.7484676 12.1699013,36.2684316 12.0584654,36.8186472 L11.5429035,39.3642399 L10.8234698,40.0689913 C10.4261375,40.4582148 9.64832332,40.772998 9.08484468,40.7720771 L2.05677306,40.7605915 C0.929206373,40.7587488 0.0136096192,39.8627732 0.0117269086,38.757281 L2.00622469e-06,31.8726394 C-0.000937050589,31.3212429 0.327906482,30.5513696 0.726997136,30.1604237 L13.5761386,17.5735096 C12.297037,12.9085729 13.5197919,7.72921137 17.2478793,4.07720739 C22.810531,-1.37192079 31.8444426,-1.35715713 37.4256856,4.11018295 C43.0069286,9.57752304 43.0219998,18.4270691 37.4593482,23.8761973 C33.7312608,27.5282012 28.4439959,28.726002 23.6818774,27.4730057 L15.8595057,35.1357316 Z M31.6774294,13.9837685 C32.8694262,12.8160982 32.8661966,10.9197669 31.670216,9.74819403 C30.4742353,8.57662115 28.5383971,8.57345751 27.3464003,9.74112783 C26.1544036,10.9087982 26.1576331,12.8051295 27.3536137,13.9767023 C28.5495944,15.1482752 30.4854326,15.1514388 31.6774294,13.9837685 Z" id="path-1"></path>
    </defs>
    <g id="Milkyway-Icons" stroke="none" stroke-width="1" fill="none" fill-rule="evenodd">
        <g id="Icons-in-use" transform="translate(-196.000000, -119.000000)">
            <g id="Icons/Milkyway/Utility/Key" transform="translate(193.000000, 115.000000)">
                <g id="Key" transform="translate(0.510417, 0.000000)">
                    <g id="Colour/Ink-Light" transform="translate(3.062500, 4.000000)">
                        <mask id="mask-2" fill="white">
                            <use xlink:href="#path-1"></use>
                        </mask>
                        <use id="Mask" fill="#000000" fill-rule="nonzero" xlink:href="#path-1"></use>
                        <g mask="url(#mask-2)" fill="#6F7881" id="Color/Ink/Light">
                            <g transform="translate(-3.572917, -4.000000)">
                                <rect x="0" y="0" width="49" height="48"></rect>
                            </g>
                        </g>
                    </g>
                </g>
            </g>
        </g>
    </g>
</svg>