<?xml version="1.0" encoding="UTF-8"?>
<svg width="44px" height="44px" viewBox="0 0 44 44" version="1.1" xmlns="http://www.w3.org/2000/svg" xmlns:xlink="http://www.w3.org/1999/xlink">
    <!-- Generator: Sketch 53.1 (72631) - https://sketchapp.com -->
    <title>universeIcons/Milkyway/Utility/Link</title>
    <desc>Created with Sketch.</desc>
    <defs>
        <path d="M29.0710678,14.9289322 C29.8521164,15.7099808 29.8501493,16.9782778 29.0775766,17.7508505 L17.7508505,29.0775766 C16.9733966,29.8550305 15.7154261,29.8575617 14.9289322,29.0710678 C14.1478836,28.2900192 14.1498507,27.0217222 14.9224234,26.2491495 L26.2491495,14.9224234 C27.0266034,14.1449695 28.2845739,14.1424383 29.0710678,14.9289322 Z M14.9289608,37.5563206 C12.5882373,39.8970441 8.78287897,39.8955773 6.44365081,37.5563492 C4.10245057,35.2151489 4.10363611,31.4110825 6.44367944,29.0710392 L12.1005051,23.4142136 C12.8815536,22.633165 12.8815536,21.366835 12.1005051,20.5857864 C11.3194565,19.8047379 10.0531265,19.8047379 9.27207794,20.5857864 L3.61525231,26.2426121 C-0.286493669,30.144358 -0.288468513,36.4810841 3.61522369,40.3847763 C7.51606112,44.2856137 13.8540789,44.2880567 17.7573879,40.3847477 L23.4142136,34.7279221 C24.1952621,33.9468735 24.1952621,32.6805435 23.4142136,31.8994949 C22.633165,31.1184464 21.366835,31.1184464 20.5857864,31.8994949 L14.9289608,37.5563206 Z M40.3847477,17.7573879 C44.2880567,13.8540789 44.2856137,7.51606112 40.3847763,3.61522369 C36.4810841,-0.288468513 30.144358,-0.286493669 26.2426121,3.61525231 L20.5857864,9.27207794 C19.8047379,10.0531265 19.8047379,11.3194565 20.5857864,12.1005051 C21.366835,12.8815536 22.633165,12.8815536 23.4142136,12.1005051 L29.0710392,6.44367944 C31.4110825,4.10363611 35.2151489,4.10245057 37.5563492,6.44365081 C39.8955773,8.78287897 39.8970441,12.5882373 37.5563206,14.9289608 L31.8994949,20.5857864 C31.1184464,21.366835 31.1184464,22.633165 31.8994949,23.4142136 C32.6805435,24.1952621 33.9468735,24.1952621 34.7279221,23.4142136 L40.3847477,17.7573879 Z" id="path-1"></path>
    </defs>
    <g id="Milkyway-Icons" stroke="none" stroke-width="1" fill="none" fill-rule="evenodd">
        <g id="Icons-in-use" transform="translate(-483.000000, -212.000000)">
            <g id="Icons/Milkyway/Utility/Link" transform="translate(481.000000, 210.000000)">
                <g id="Link">
                    <g id="Colour/Ink-Light" transform="translate(2.000000, 2.000000)">
                        <mask id="mask-2" fill="white">
                            <use xlink:href="#path-1"></use>
                        </mask>
                        <use id="Mask" fill="#000000" xlink:href="#path-1"></use>
                        <g mask="url(#mask-2)" fill="#6F7881" id="Color/Ink/Light">
                            <g transform="translate(-2.000000, -2.000000)">
                                <rect x="0" y="0" width="48" height="48"></rect>
                            </g>
                        </g>
                    </g>
                </g>
            </g>
        </g>
    </g>
</svg>