<?xml version="1.0" encoding="UTF-8"?>
<svg width="33px" height="42px" viewBox="0 0 33 42" version="1.1" xmlns="http://www.w3.org/2000/svg" xmlns:xlink="http://www.w3.org/1999/xlink">
    <!-- Generator: Sketch 53.1 (72631) - https://sketchapp.com -->
    <title>universeIcons/Milkyway/Utility/Location</title>
    <desc>Created with Sketch.</desc>
    <defs>
        <path d="M25.6973228,33.6084057 C22.360253,37.5449809 18.1545189,41 16.5,41 C14.8454811,41 10.639747,37.5449809 7.30267718,33.6084057 C2.77376423,28.2658724 0,22.3889537 0,16.4 C0,7.3425301 7.38730163,0 16.5,0 C25.6126984,0 33,7.3425301 33,16.4 C33,22.3889537 30.2262358,28.2658724 25.6973228,33.6084057 Z M15.1066405,35.5761076 C15.7185442,36.0787877 16.5,36.6424703 16.5,36.6424703 C16.5,36.6424703 17.3690886,36.0067972 17.8933595,35.5761076 C19.4147394,34.3262909 21.0496669,32.7279557 22.5427885,30.9665943 C26.5016906,26.2964745 28.875,21.2680204 28.875,16.4 C28.875,9.60689758 23.3345238,4.1 16.5,4.1 C9.66547622,4.1 4.125,9.60689758 4.125,16.4 C4.125,21.2680204 6.49830937,26.2964745 10.4572115,30.9665943 C11.9503331,32.7279557 13.5852606,34.3262909 15.1066405,35.5761076 Z M10.3125,16.4 C10.3125,13.0034488 13.0827381,10.25 16.5,10.25 C19.9172619,10.25 22.6875,13.0034488 22.6875,16.4 C22.6875,19.7965512 19.9172619,22.55 16.5,22.55 C13.0827381,22.55 10.3125,19.7965512 10.3125,16.4 Z M18.5625,16.4 C18.5625,15.2678163 17.6390873,14.35 16.5,14.35 C15.3609127,14.35 14.4375,15.2678163 14.4375,16.4 C14.4375,17.5321837 15.3609127,18.45 16.5,18.45 C17.6390873,18.45 18.5625,17.5321837 18.5625,16.4 Z" id="path-1"></path>
    </defs>
    <g id="Milkyway-Icons" stroke="none" stroke-width="1" fill="none" fill-rule="evenodd">
        <g id="Icons-in-use" transform="translate(-589.000000, -118.000000)">
            <g id="Icons/Milkyway/Utility/Location" transform="translate(581.000000, 115.000000)">
                <g id="Location">
                    <g id="Colour/Ink-Light" transform="translate(8.000000, 3.500000)">
                        <mask id="mask-2" fill="white">
                            <use xlink:href="#path-1"></use>
                        </mask>
                        <use id="Mask" fill="#000000" fill-rule="nonzero" xlink:href="#path-1"></use>
                        <g mask="url(#mask-2)" fill="#6F7881" id="Color/Ink/Light">
                            <g transform="translate(-8.000000, -3.000000)">
                                <rect x="0" y="0" width="48" height="47"></rect>
                            </g>
                        </g>
                    </g>
                </g>
            </g>
        </g>
    </g>
</svg>