<?xml version="1.0" encoding="UTF-8"?>
<svg width="44px" height="36px" viewBox="0 0 44 36" version="1.1" xmlns="http://www.w3.org/2000/svg" xmlns:xlink="http://www.w3.org/1999/xlink">
    <!-- Generator: Sketch 53.1 (72631) - https://sketchapp.com -->
    <title>universeIcons/Milkyway/Utility/No view</title>
    <desc>Created with Sketch.</desc>
    <defs>
        <path d="M7.85884674,34.9695804 C7.07725561,35.7511715 5.81593116,35.7570567 5.02943725,34.9705627 C4.24838867,34.1895142 4.24804073,32.9235321 5.03041961,32.1411533 L7.84424435,29.3273285 C7.26691106,28.9076553 6.70634763,28.4633775 6.16385557,27.9960218 C2.48803142,24.8293072 0,20.8274787 0,18 C0,15.1720273 2.48411314,11.1700245 6.15610513,8.00442446 C10.4969785,4.26218613 15.99976,2 22,2 C25.8053959,2 29.4106351,2.90824697 32.6457462,4.52582672 L36.1411533,1.03041961 C36.9227444,0.248828485 38.1840688,0.242943341 38.9705627,1.02943725 C39.7516113,1.81048583 39.7519593,3.07646785 38.9695804,3.85884674 L36.1629972,6.6654299 C36.7404008,7.08483379 37.3009158,7.5288606 37.8432405,7.99598707 C41.5175192,11.1607933 44,15.1627946 44,18 C44,20.8367098 41.5136018,24.8385397 37.83549,28.0044589 C33.4943607,31.7410675 27.9925391,34 22,34 C18.1990764,34 14.5955032,33.0895706 11.3597598,31.4686673 L7.85884674,34.9695804 Z M22,30 C26.9820968,30 31.5776597,28.1131583 35.2260335,24.9728361 C38.1080046,22.4921916 40,19.4470464 40,18 C40,16.5508402 38.1113808,13.5062017 35.2327482,11.026718 C34.6125475,10.4925138 33.9648375,9.99459301 33.2923569,9.53607027 L27.415258,15.4131691 C27.7900957,16.1964396 28,17.0737069 28,18 C28,21.3137085 25.3137085,24 22,24 C21.0737069,24 20.1964396,23.7900957 19.4131691,23.415258 L14.3743842,28.454043 C16.7461736,29.4516208 19.3171817,30 22,30 Z M16.584742,20.5868309 C16.2099043,19.8035604 16,18.9262931 16,18 C16,14.6862915 18.6862915,12 22,12 C22.9262931,12 23.8035604,12.2099043 24.5868309,12.584742 L29.630202,7.54137089 C27.2589172,6.54669131 24.6865866,6 22,6 C17.0113652,6 12.4157372,7.88925652 8.7679061,11.0340277 C5.89079843,13.5143632 4,16.560513 4,18 C4,19.4373739 5.89417932,22.4840318 8.774621,24.9655261 C9.39494759,25.4999361 10.0425452,25.9980993 10.7146702,26.4569026 L16.584742,20.5868309 Z" id="path-1"></path>
    </defs>
    <g id="Milkyway-Icons" stroke="none" stroke-width="1" fill="none" fill-rule="evenodd">
        <g id="Icons-in-use" transform="translate(-194.000000, -216.000000)">
            <g id="Icons/Milkyway/Utility/No-view" transform="translate(192.000000, 210.000000)">
                <g id="No-view">
                    <g id="Colour/Ink-Light" transform="translate(2.000000, 6.000000)">
                        <mask id="mask-2" fill="white">
                            <use xlink:href="#path-1"></use>
                        </mask>
                        <use id="Mask" fill="#000000" xlink:href="#path-1"></use>
                        <g mask="url(#mask-2)" fill="#6F7881" id="Color/Ink/Light">
                            <g transform="translate(-2.000000, -6.000000)">
                                <rect x="0" y="0" width="48" height="48"></rect>
                            </g>
                        </g>
                    </g>
                </g>
            </g>
        </g>
    </g>
</svg>