<?xml version="1.0" encoding="UTF-8"?>
<svg width="46px" height="34px" viewBox="0 0 46 34" version="1.1" xmlns="http://www.w3.org/2000/svg" xmlns:xlink="http://www.w3.org/1999/xlink">
    <!-- Generator: Sketch 53.1 (72631) - https://sketchapp.com -->
    <title>universeIcons/Milkyway/Utility/Payment</title>
    <desc>Created with Sketch.</desc>
    <defs>
        <path d="M7.55555556,3.77741436 C7.55555556,1.69120601 9.25217894,0 11.3333574,0 L41.5555314,0 C43.6419538,0 45.3333333,1.6944469 45.3333333,3.77479226 L45.3333333,22.6696522 C45.3333333,24.7544124 43.6368555,26.4444444 41.5506387,26.4444444 L37.7777778,26.4444444 L37.7777778,30.2252077 C37.7777778,32.3099679 36.0811544,34 33.9999759,34 L3.77780189,34 C1.69137952,34 0,32.3055531 0,30.2252077 L0,11.3303478 C0,9.24558762 1.69662339,7.55555556 3.77780189,7.55555556 L7.55555556,7.55555556 L7.55555556,3.77741436 Z M33.9999759,7.55555556 C36.0863983,7.55555556 37.7777778,9.25000246 37.7777778,11.3303478 L37.7777778,22.6666667 L41.5506387,22.6666667 C41.5536649,22.6666667 41.5555556,3.77479226 41.5555556,3.77479226 C41.5555556,3.77932227 11.3333574,3.77777778 11.3333574,3.77777778 C11.3349027,3.77777778 11.3345459,5.90611278 11.3340374,7.55555556 L33.9999759,7.55555556 Z M3.77777778,11.3333333 L3.77777778,30.2222222 L34,30.2222222 L34,11.3333333 L3.77777778,11.3333333 Z M5.66666667,25.5088484 C5.66666667,24.9823593 6.09258767,24.5555556 6.60240142,24.5555556 L10.3975986,24.5555556 C10.9143906,24.5555556 11.3333333,24.974278 11.3333333,25.5088484 L11.3333333,27.3800405 C11.3333333,27.9065296 10.9074123,28.3333333 10.3975986,28.3333333 L6.60240142,28.3333333 C6.08560938,28.3333333 5.66666667,27.9146109 5.66666667,27.3800405 L5.66666667,25.5088484 Z M26.4444444,14.1755151 C26.4444444,13.649026 26.8703654,13.2222222 27.3801792,13.2222222 L31.1753764,13.2222222 C31.6921684,13.2222222 32.1111111,13.6409447 32.1111111,14.1755151 L32.1111111,16.0467072 C32.1111111,16.5731963 31.6851901,17 31.1753764,17 L27.3801792,17 C26.8633872,17 26.4444444,16.5812776 26.4444444,16.0467072 L26.4444444,14.1755151 Z M18.8888889,26.4444444 C15.7592753,26.4444444 13.2222222,23.9073914 13.2222222,20.7777778 C13.2222222,17.6481642 15.7592753,15.1111111 18.8888889,15.1111111 C22.0185025,15.1111111 24.5555556,17.6481642 24.5555556,20.7777778 C24.5555556,23.9073914 22.0185025,26.4444444 18.8888889,26.4444444 Z" id="path-1"></path>
    </defs>
    <g id="Milkyway-Icons" stroke="none" stroke-width="1" fill="none" fill-rule="evenodd">
        <g id="Icons-in-use" transform="translate(-771.000000, -217.000000)">
            <g id="Icons/Milkyway/Utility/Payment" transform="translate(770.000000, 210.000000)">
                <g id="Payment">
                    <g id="Colour/Ink-Light" transform="translate(1.000000, 7.000000)">
                        <mask id="mask-2" fill="white">
                            <use xlink:href="#path-1"></use>
                        </mask>
                        <use id="Mask" fill="#000000" xlink:href="#path-1"></use>
                        <g mask="url(#mask-2)" fill="#6F7881" id="Color/Ink/Light">
                            <g transform="translate(-1.000000, -7.000000)">
                                <rect x="0" y="0" width="48" height="48"></rect>
                            </g>
                        </g>
                    </g>
                </g>
            </g>
        </g>
    </g>
</svg>