<?xml version="1.0" encoding="UTF-8"?>
<svg width="32px" height="32px" viewBox="0 0 32 32" version="1.1" xmlns="http://www.w3.org/2000/svg" xmlns:xlink="http://www.w3.org/1999/xlink">
    <!-- Generator: Sketch 53.1 (72631) - https://sketchapp.com -->
    <title>universeIcons/Milkyway/Utility/Plus</title>
    <desc>Created with Sketch.</desc>
    <defs>
        <path d="M14,14 L14,2 C14,0.8954305 14.8954305,0 16,0 C17.1045695,0 18,0.8954305 18,2 L18,14 L30,14 C31.1045695,14 32,14.8954305 32,16 C32,17.1045695 31.1045695,18 30,18 L18,18 L18,30 C18,31.1045695 17.1045695,32 16,32 C14.8954305,32 14,31.1045695 14,30 L14,18 L2,18 C0.8954305,18 1.3527075e-16,17.1045695 0,16 C-1.3527075e-16,14.8954305 0.8954305,14 2,14 L14,14 Z" id="path-1"></path>
    </defs>
    <g id="Milkyway-Icons" stroke="none" stroke-width="1" fill="none" fill-rule="evenodd">
        <g id="Icons-in-use" transform="translate(-585.000000, -311.000000)">
            <g id="Icons/Milkyway/Utility/Plus" transform="translate(577.000000, 303.000000)">
                <g id="Edit"></g>
                <g id="Colour/Ink-Light" transform="translate(8.000000, 8.000000)">
                    <mask id="mask-2" fill="white">
                        <use xlink:href="#path-1"></use>
                    </mask>
                    <use id="Mask" fill="#000000" xlink:href="#path-1"></use>
                    <g mask="url(#mask-2)" fill="#6F7881" id="Color/Ink/Light">
                        <g transform="translate(-8.000000, -8.000000)">
                            <rect x="0" y="0" width="48" height="48"></rect>
                        </g>
                    </g>
                </g>
            </g>
        </g>
    </g>
</svg>