<?xml version="1.0" encoding="UTF-8"?>
<svg width="33px" height="43px" viewBox="0 0 33 43" version="1.1" xmlns="http://www.w3.org/2000/svg" xmlns:xlink="http://www.w3.org/1999/xlink">
    <!-- Generator: Sketch 53.1 (72631) - https://sketchapp.com -->
    <title>universeIcons/Milkyway/Utility/Price Tag</title>
    <desc>Created with Sketch.</desc>
    <defs>
        <path d="M2.32406984,3.92757972 C1.28713816,3.5469927 0.755065689,2.39786675 1.13565271,1.36093507 C1.51623972,0.324003397 2.66536567,-0.208069077 3.70229735,0.172517941 C8.28231842,1.85353184 11.1781627,4.95423916 12.5836654,9 L16,9 C16.535577,9 17.0487776,9.21480861 17.4246674,9.59631816 L31.8293528,24.2163591 C33.3749322,25.7850455 33.3703384,28.3090173 31.8132879,29.8701771 L20.8505293,40.8618687 C19.2933261,42.4231817 16.7615971,42.4278952 15.1950606,40.8770634 L0.592928849,26.4213201 C0.213489502,26.0456847 0,25.5339253 0,25 L0,11 C0,9.8954305 0.8954305,9 2,9 L8.25544882,9 C7.1136776,6.70713313 5.20267521,4.98411976 2.32406984,3.92757972 Z M4,13 L4,24.1697998 L18,38 L29,27 L15,13 L13.4643316,13 C13.6041789,14.3027281 13.6140665,15.6091651 13.5204343,16.8938052 C14.4231762,17.6272085 15,18.7462421 15,20 C15,22.209139 13.209139,24 11,24 C8.790861,24 7,22.209139 7,20 C7,18.3020826 8.05791043,16.8512535 9.5505432,16.2707006 C9.610136,15.1807083 9.5781975,14.0794563 9.43339009,13 L4,13 Z" id="path-1"></path>
    </defs>
    <g id="Milkyway-Icons" stroke="none" stroke-width="1" fill="none" fill-rule="evenodd">
        <g id="Icons-in-use" transform="translate(-876.000000, -213.000000)">
            <g id="Icons/Milkyway/Utility/Price-Tag" transform="translate(867.000000, 210.000000)">
                <g id="Price-Tag">
                    <g id="Colour/Ink-Light" transform="translate(9.000000, 3.000000)">
                        <mask id="mask-2" fill="white">
                            <use xlink:href="#path-1"></use>
                        </mask>
                        <use id="Mask" fill="#000000" xlink:href="#path-1"></use>
                        <g mask="url(#mask-2)" fill="#6F7881" id="Color/Ink/Light">
                            <g transform="translate(-9.000000, -3.000000)">
                                <rect x="0" y="0" width="48" height="48"></rect>
                            </g>
                        </g>
                    </g>
                </g>
            </g>
        </g>
    </g>
</svg>