<?xml version="1.0" encoding="UTF-8"?>
<svg width="44px" height="41px" viewBox="0 0 44 41" version="1.1" xmlns="http://www.w3.org/2000/svg" xmlns:xlink="http://www.w3.org/1999/xlink">
    <!-- Generator: Sketch 53.1 (72631) - https://sketchapp.com -->
    <title>universeIcons/Milkyway/Utility/Promote</title>
    <desc>Created with Sketch.</desc>
    <defs>
        <path d="M9.99527533,27 C4.47752559,27 0,22.5163508 0,17 C0,11.4799575 4.48051622,7 9.99527533,7 L27.3948975,7 L35.1905799,0.804364308 C37.3708203,-0.909301392 40,0.36909106 40,3.13877691 L40,13 C42.209139,13 44,14.790861 44,17 C44,19.209139 42.209139,21 40,21 L40,30.9012621 C40,33.6722163 37.3718114,34.9525606 35.1977003,33.2350075 L27.287944,27 L24.5543429,27 L26.9145874,36.551948 C27.4914365,38.8864661 25.8641969,40.9748535 23.45351,40.9748535 L17.45274,40.9748535 C15.4293005,40.9748535 13.5163162,39.474024 13.0313782,37.511472 L10.4340395,27 L9.99527533,27 Z M16.9145874,36.551948 C16.9586363,36.7302149 17.2704571,36.9748535 17.45274,37 L22.9049683,37 L20.4340359,27 L14.5543429,27 L16.9145874,36.551948 Z M13.0027601,19 C11.8966663,19 11,18.1122704 11,17 C11,15.8954305 11.8935426,15 13.0027601,15 L20,15 L20,11 L9.99527533,11 C6.68954356,11 4,13.6892082 4,17 C4,20.3084346 6.68788931,23 9.99527533,23 L20,23 L20,19 L13.0027601,19 Z M36,5.29699707 L29.2359194,10.5724195 C28.8835023,10.8494189 28.4482483,11 28,11 L24,11 L24,23 L28,23 C28.4499417,23 28.886739,23.1517193 29.2397997,23.4306381 L36.0041292,28.7744749 L36.0020812,17.130271 C36.0006973,17.0870172 36,17.04359 36,17 C36,16.9568911 36.0006819,16.9139414 36.0020356,16.8711612 L36,5.29699707 Z" id="path-1"></path>
    </defs>
    <g id="Milkyway-Icons" stroke="none" stroke-width="1" fill="none" fill-rule="evenodd">
        <g id="Icons-in-use" transform="translate(-676.000000, -214.000000)">
            <g id="Icons/Milkyway/Utility/Promote" transform="translate(674.000000, 210.000000)">
                <g id="Promote">
                    <g id="Colour/Ink-Light" transform="translate(2.000000, 4.000000)">
                        <mask id="mask-2" fill="white">
                            <use xlink:href="#path-1"></use>
                        </mask>
                        <use id="Mask" fill="#000000" xlink:href="#path-1"></use>
                        <g mask="url(#mask-2)" fill="#6F7881" id="Color/Ink/Light">
                            <g transform="translate(-2.000000, -4.000000)">
                                <rect x="0" y="0" width="48" height="48"></rect>
                            </g>
                        </g>
                    </g>
                </g>
            </g>
        </g>
    </g>
</svg>