<?xml version="1.0" encoding="UTF-8"?>
<svg width="40px" height="40px" viewBox="0 0 40 40" version="1.1" xmlns="http://www.w3.org/2000/svg" xmlns:xlink="http://www.w3.org/1999/xlink">
    <!-- Generator: Sketch 53.1 (72631) - https://sketchapp.com -->
    <title>universeIcons/Milkyway/Utility/Question</title>
    <desc>Created with Sketch.</desc>
    <defs>
        <path d="M18,18 L18,11.9907951 C18,10.8913093 18.8877296,10 20,10 C21.1045695,10 22,10.8982124 22,11.9907951 L22,18 L28.0092049,18 C29.1086907,18 30,18.8877296 30,20 C30,21.1045695 29.1017876,22 28.0092049,22 L22,22 L22,28.0092049 C22,29.1086907 21.1122704,30 20,30 C18.8954305,30 18,29.1017876 18,28.0092049 L18,22 L11.9907951,22 C10.8913093,22 10,21.1122704 10,20 C10,18.8954305 10.8982124,18 11.9907951,18 L18,18 Z M20,40 C8.954305,40 0,31.045695 0,20 C0,8.954305 8.954305,0 20,0 C31.045695,0 40,8.954305 40,20 C40,31.045695 31.045695,40 20,40 Z M20,36 C28.836556,36 36,28.836556 36,20 C36,11.163444 28.836556,4 20,4 C11.163444,4 4,11.163444 4,20 C4,28.836556 11.163444,36 20,36 Z" id="path-1"></path>
    </defs>
    <g id="Milkyway-Icons" stroke="none" stroke-width="1" fill="none" fill-rule="evenodd">
        <g id="Icons-in-use" transform="translate(-1160.000000, -214.000000)">
            <g id="Icons/Milkyway/Utility/Button-Plus" transform="translate(1156.000000, 210.000000)">
                <g id="Plus">
                    <g id="Colour/Ink-Light" transform="translate(4.000000, 4.000000)">
                        <mask id="mask-2" fill="white">
                            <use xlink:href="#path-1"></use>
                        </mask>
                        <use id="Mask" fill="#000000" xlink:href="#path-1"></use>
                        <g mask="url(#mask-2)" fill="#6F7881" id="Color/Ink/Light">
                            <g transform="translate(-4.000000, -4.000000)">
                                <rect x="0" y="0" width="48" height="48"></rect>
                            </g>
                        </g>
                    </g>
                </g>
            </g>
        </g>
    </g>
</svg>