<?xml version="1.0" encoding="UTF-8"?>
<svg width="40px" height="40px" viewBox="0 0 40 40" version="1.1" xmlns="http://www.w3.org/2000/svg" xmlns:xlink="http://www.w3.org/1999/xlink">
    <!-- Generator: Sketch 53.1 (72631) - https://sketchapp.com -->
    <title>universeIcons/Milkyway/Utility/Seats</title>
    <desc>Created with Sketch.</desc>
    <defs>
        <path d="M7.67340469,18.8892348 L7.75590507,13.5339301 C7.83739882,8.24396805 11.9854559,4 17.0743745,4 L30.9897484,4 C36.1368569,4 40.3094129,8.33795373 40.3094129,13.6890908 L40.3094129,18.883033 C42.4572669,19.654088 44,21.7745292 44,24.269578 L44,34.1136943 C44,37.0039443 41.929842,39.3915169 39.2469711,39.7611945 L39.2469711,40.6766418 C39.2469711,42.5120819 37.8157844,44 36.0503262,44 C34.2848679,44 32.8536813,42.5120819 32.8536813,40.6766418 L32.8536813,39.8108798 L15.1062694,39.8108798 L15.1062694,40.6766418 C15.1062694,42.5120819 13.6750827,44 11.9096244,44 C10.1441662,44 8.71297952,42.5120819 8.71297952,40.6766418 L8.71297952,39.7555196 C6.04958392,39.3677165 4,36.9895462 4,34.1136943 L4,24.269578 C4,21.7811875 5.53451012,19.665408 7.67340469,18.8892348 Z M11.4038573,18.7523546 C13.7665009,19.3854454 15.5120526,21.6155836 15.5120526,24.269578 L15.5120526,24.3858471 L32.4879474,24.3858471 L32.4879474,24.269578 C32.4879474,21.6210517 34.2263136,19.3946368 36.5815471,18.7562881 L36.5815471,13.6890908 C36.5815471,10.4784086 34.0780135,7.87563634 30.9897484,7.87563634 L17.0743745,7.87563634 C14.0210233,7.87563634 11.5321891,10.4220172 11.4832928,13.5959944 L11.4038573,18.7523546 Z M11.8587441,28.1839707 L11.8587441,24.269578 C11.8587441,23.2207552 11.0409232,22.3705162 10.0320899,22.3705162 L9.47996272,22.3705162 C8.47112944,22.3705162 7.65330848,23.2207552 7.65330848,24.269578 L7.65330848,34.1136943 C7.65330848,35.1625172 8.47112944,36.0127561 9.47996272,36.0127561 L38.5200373,36.0127561 C39.5288706,36.0127561 40.3466915,35.1625172 40.3466915,34.1136943 L40.3466915,24.269578 C40.3466915,23.2207552 39.5288706,22.3705162 38.5200373,22.3705162 L37.9679101,22.3705162 C36.9590768,22.3705162 36.1412559,23.2207552 36.1412559,24.269578 L36.1412559,28.1839707 L11.8587441,28.1839707 Z" id="path-1"></path>
    </defs>
    <g id="Milkyway-Icons" stroke="none" stroke-width="1" fill="none" fill-rule="evenodd">
        <g id="Icons-in-use" transform="translate(-1929.000000, -119.000000)">
            <g id="Icons/Milkyway/Utility/Seats" transform="translate(1925.000000, 115.000000)">
                <mask id="mask-2" fill="white">
                    <use xlink:href="#path-1"></use>
                </mask>
                <use fill="#000000" fill-rule="nonzero" xlink:href="#path-1"></use>
                <g id="Colour/Ink-Light" mask="url(#mask-2)" fill="#6F7881" fill-rule="evenodd">
                    <rect id="Color/Ink/Light" x="0" y="0" width="48" height="48"></rect>
                </g>
            </g>
        </g>
    </g>
</svg>