<?xml version="1.0" encoding="UTF-8"?>
<svg width="38px" height="40px" viewBox="0 0 38 40" version="1.1" xmlns="http://www.w3.org/2000/svg" xmlns:xlink="http://www.w3.org/1999/xlink">
    <!-- Generator: Sketch 53.1 (72631) - https://sketchapp.com -->
    <title>universeIcons/Milkyway/Utility/Settings</title>
    <desc>Created with Sketch.</desc>
    <defs>
        <path d="M25.7473739,6.59259033 L27.2331124,7.45967489 C27.2331124,7.45967489 31.6688494,6.68551661 31.9265622,6.6619429 C33.268804,6.49728857 34.7144127,7.21816119 35.389613,8.38764235 L37.2514032,11.6123577 C37.9294464,12.786763 37.8321646,14.4050889 37.0476208,15.4290338 C36.8654914,15.6853979 33.9819809,19.1390312 33.9819809,19.1390312 C33.9819809,19.1390312 34,19.3940891 34,20 C34,20.2919886 33.9749641,20.8729382 33.9749641,20.8729382 C33.9749641,20.8729382 36.8654914,24.3146021 37.0147109,24.5259835 C37.8282383,25.6060414 37.926538,27.2182746 37.2514032,28.3876423 L35.389613,31.6123577 C34.7115063,32.7868728 33.2611286,33.5116696 31.9691343,33.3428347 C31.9584563,33.3417859 27.2092582,32.5379326 27.2092582,32.5379326 L25.7473745,33.3999032 C25.7473745,33.3999032 24.1961229,37.6294183 24.0877388,37.864189 C23.5591449,39.1087534 22.2120598,40 20.8617902,40 L17.1382098,40 C15.7819965,40 14.4291151,39.1063345 13.9346622,37.9147129 C13.8038297,37.6289745 12.2483097,33.3842262 12.2483097,33.3842262 L10.7579303,32.5344294 C10.7579303,32.5344294 6.33074241,33.3146642 6.07302788,33.3382055 C4.73090656,33.502712 3.28552181,32.7817254 2.61038705,31.6123577 L0.7485968,28.3876423 C0.0704901873,27.2131272 0.167986531,25.5946648 0.952734642,24.5706452 C1.1348693,24.3143391 4.02122722,20.8579474 4.02122722,20.8579474 C4.02122722,20.8579474 4,20.6060829 4,20 C4,19.7137165 4.02406835,19.1440553 4.02406835,19.1440553 C4.02406835,19.1440553 1.1348693,15.6856609 0.985622608,15.4742973 C0.171906866,14.3942089 0.0733965377,12.7818388 0.7485968,11.6123577 L2.61038705,8.38764235 C3.28843029,7.21323701 4.73858254,6.48832258 6.01761675,6.65578505 C6.33074241,6.68533577 10.8017478,7.4641533 10.8017478,7.4641533 L12.2697274,6.59148439 C12.2697274,6.59148439 13.8038297,2.3710255 13.9121848,2.13624019 C14.4407109,0.891497516 15.7878092,0 17.1382098,0 L20.8617902,0 C22.2178767,0 23.5707472,0.893411475 24.0652375,2.08481883 C24.1961229,2.37058166 25.7473739,6.59259033 25.7473739,6.59259033 Z M22.449496,9.50877921 L22.1808569,8.61006445 C21.7902346,7.30326235 20.68287,4.34059286 20.5648989,4.06328342 C20.4965149,3.90253622 17.5035908,3.90259957 17.4352187,4.0633607 C17.3172725,4.34068395 16.2101239,7.30325628 15.8195492,8.6098932 L15.5508975,9.50864625 L14.688078,9.87671314 C13.8727566,10.224518 13.1027168,10.6703496 12.3942086,11.2034029 L11.6435565,11.7681636 L10.7296053,11.5510775 C9.40183145,11.2356982 6.28044023,10.7129462 5.98109341,10.6764294 C5.8075695,10.6552616 4.31109609,13.2473081 4.41619225,13.3869766 C4.59748792,13.6279113 6.61064045,16.0691909 7.54740814,17.0611567 L8.1907329,17.7423888 L8.07906181,18.672697 C8.02651742,19.1104333 8,19.5533412 8,20 C8,20.4466588 8.02651742,20.8895667 8.07906181,21.327303 L8.1907329,22.2576112 L7.54740814,22.9388433 C6.61064045,23.9308091 4.59748792,26.3720887 4.41619225,26.6130234 C4.31109609,26.7526919 5.8075695,29.3447384 5.98109341,29.3235706 C6.28044023,29.2870538 9.40183145,28.7643018 10.7296053,28.4489225 L11.6435565,28.2318364 L12.3942086,28.7965971 C13.1027168,29.3296504 13.8727566,29.775482 14.688078,30.1232869 L15.5508975,30.4913538 L15.8195492,31.3901068 C16.2101239,32.6967437 17.3172725,35.659316 17.4352187,35.9366393 C17.5035908,36.0974004 20.4965149,36.0974638 20.5648989,35.9367166 C20.68287,35.6594071 21.7902346,32.6967376 22.1808569,31.3899356 L22.449496,30.4912208 L23.3122658,30.1231402 C24.1275752,29.7753075 24.8976001,29.3294496 25.6060904,28.7963721 L26.3567552,28.2315621 L27.2707454,28.4486563 C28.5983525,28.7639942 31.719552,29.2868848 32.0188984,29.32343 C32.1214171,29.3359458 33.6890117,26.752632 33.5839335,26.6129601 C33.4026623,26.3720108 31.3895334,23.9304955 30.4526463,22.9384056 L29.8093481,22.2572034 L29.9209828,21.326931 C29.9734976,20.8893158 30,20.4465323 30,20 C30,19.5534677 29.9734976,19.1106842 29.9209828,18.673069 L29.8093481,17.7427966 L30.4526463,17.0615944 C31.3895334,16.0695045 33.4026623,13.6279892 33.5839335,13.3870399 C33.6890117,13.247368 32.1924285,10.6553849 32.0188984,10.67657 C31.719552,10.7131152 28.5983525,11.2360058 27.2707454,11.5513437 L26.3567552,11.7684379 L25.6060904,11.2036279 C24.8976001,10.6705504 24.1275752,10.2246925 23.3122658,9.87685982 L22.449496,9.50877921 Z M19,26 C15.6862915,26 13,23.3137085 13,20 C13,16.6862915 15.6862915,14 19,14 C22.3137085,14 25,16.6862915 25,20 C25,23.3137085 22.3137085,26 19,26 Z M19,22 C20.1045695,22 21,21.1045695 21,20 C21,18.8954305 20.1045695,18 19,18 C17.8954305,18 17,18.8954305 17,20 C17,21.1045695 17.8954305,22 19,22 Z" id="path-1"></path>
    </defs>
    <g id="Milkyway-Icons" stroke="none" stroke-width="1" fill="none" fill-rule="evenodd">
        <g id="Icons-in-use" transform="translate(-1066.000000, -119.000000)">
            <g id="Icons/Milkyway/Utility/Settings" transform="translate(1061.000000, 115.000000)">
                <g id="Settings">
                    <g id="Colour/Ink-Light" transform="translate(5.000000, 4.000000)">
                        <mask id="mask-2" fill="white">
                            <use xlink:href="#path-1"></use>
                        </mask>
                        <use id="Mask" fill="#000000" xlink:href="#path-1"></use>
                        <g mask="url(#mask-2)" fill="#6F7881" id="Color/Ink/Light">
                            <g transform="translate(-5.000000, -4.000000)">
                                <rect x="0" y="0" width="48" height="48"></rect>
                            </g>
                        </g>
                    </g>
                </g>
            </g>
        </g>
    </g>
</svg>