<?xml version="1.0" encoding="UTF-8"?>
<svg width="42px" height="39px" viewBox="0 0 42 39" version="1.1" xmlns="http://www.w3.org/2000/svg" xmlns:xlink="http://www.w3.org/1999/xlink">
    <!-- Generator: Sketch 53.1 (72631) - https://sketchapp.com -->
    <title>universeIcons/Milkyway/Utility/Star</title>
    <desc>Created with Sketch.</desc>
    <defs>
        <path d="M19.1915033,29.8752841 L11.835924,33.7437921 L13.2409359,25.5519438 C13.4461926,24.3552054 12.9877169,22.9397391 12.1161322,22.090154 L6.16512797,16.2898478 L14.3890467,15.0948425 C15.5906404,14.9202407 16.7951521,14.0468012 17.333821,12.9553387 L21.0139428,5.5086025 L24.6891268,12.9553387 C25.2264959,14.0441672 26.4294007,14.9198183 27.6339012,15.0948425 L35.8483768,16.2985633 L29.9068156,22.090154 C29.0373343,22.9376888 28.5762587,24.3523104 28.7820119,25.5519438 L30.2051506,33.7518707 L22.8314446,29.8752841 C21.7567065,29.3102609 20.2688413,29.308894 19.1915033,29.8752841 Z M30.1410293,38.2372631 C32.5848021,39.5220305 34.9430142,37.8110132 34.4759407,35.0877656 L32.7244452,24.8757636 C32.7414765,24.9750632 40.1183162,17.7223194 40.1183162,17.7223194 C42.0953699,15.7951683 41.1968234,13.0236419 38.4625274,12.6263254 L28.2090944,11.1364144 C28.3087969,11.150902 23.6905965,1.89388942 23.6905965,1.89388942 C22.4687101,-0.581922852 19.5551657,-0.583803055 18.3323514,1.89388942 L13.7468767,11.1850758 C13.791465,11.0947301 3.56042048,12.6263254 3.56042048,12.6263254 C0.828199416,13.0233404 -0.0739235006,15.7937048 1.90463167,17.7223194 L9.32408546,24.9544994 C9.25194007,24.884175 7.54700718,35.0877656 7.54700718,35.0877656 C7.0802881,37.8089467 9.43628989,39.5230062 11.8819186,38.2372631 L21.0528678,33.4158098 C20.9636912,33.4626927 30.1410293,38.2372631 30.1410293,38.2372631 Z" id="path-1"></path>
    </defs>
    <g id="Milkyway-Icons" stroke="none" stroke-width="1" fill="none" fill-rule="evenodd">
        <g id="Icons-in-use" transform="translate(-1063.000000, -308.000000)">
            <g id="Icons/Milkyway/Utility/Star" transform="translate(1060.000000, 303.000000)">
                <g id="Colour/Ink-Light" transform="translate(3.000000, 5.000000)">
                    <mask id="mask-2" fill="white">
                        <use xlink:href="#path-1"></use>
                    </mask>
                    <use id="Mask" fill="#000000" fill-rule="nonzero" xlink:href="#path-1"></use>
                    <g mask="url(#mask-2)" fill="#6F7881" id="Color/Ink/Light">
                        <g transform="translate(-3.000000, -5.000000)">
                            <rect x="0" y="0" width="48" height="48"></rect>
                        </g>
                    </g>
                </g>
            </g>
        </g>
    </g>
</svg>