<?xml version="1.0" encoding="UTF-8"?>
<svg width="32px" height="40px" viewBox="0 0 32 40" version="1.1" xmlns="http://www.w3.org/2000/svg" xmlns:xlink="http://www.w3.org/1999/xlink">
    <!-- Generator: Sketch 53.1 (72631) - https://sketchapp.com -->
    <title>universeIcons/Milkyway/Utility/Star Copy</title>
    <desc>Created with Sketch.</desc>
    <g id="Milkyway-Icons" stroke="none" stroke-width="1" fill="none" fill-rule="evenodd">
        <g id="Icons-in-use" transform="translate(-1165.000000, -307.000000)" fill="#6F7881" fill-rule="nonzero">
            <g id="Icons/Milkyway/Utility/Download" transform="translate(1157.000000, 303.000000)">
                <path d="M19.7710954,26.9153091 L22.0077044,29.1527757 L22.0077044,6.0014336 C22.0077044,4.89607234 22.895434,4 24.0077044,4 C25.1122739,4 26.0077044,4.89577872 26.0077044,6.0014336 L26.0077044,29.1527757 L28.2443133,26.9153091 C29.0286931,26.1306284 30.2922783,26.1224795 31.0787722,26.909275 C31.8598208,27.6906231 31.8552105,28.9620507 31.0727404,29.7448209 L25.4279497,35.3917763 C25.0323971,35.7874806 24.521032,35.9816693 24.0091774,35.9813441 C23.4966341,35.9848718 22.985731,35.790201 22.5934908,35.3978104 C22.5894714,35.3937874 16.9426683,29.7448209 16.9426683,29.7448209 C16.1582885,28.9601402 16.1501426,27.6960705 16.9366366,26.909275 C17.7176851,26.1279269 18.9886253,26.1325389 19.7710954,26.9153091 Z M36,39.9988512 L36,33.9961651 C36,32.891172 36.8954305,31.9953981 38,31.9953981 C39.1045695,31.9953981 40,32.891172 40,33.9961651 L40,39.9988512 C40,42.2051459 38.2081465,44 36.0087557,44 L11.9912443,44 C9.78357562,44 8,42.213083 8,39.9988512 L8,33.9961651 C8,32.891172 8.8954305,31.9953981 10,31.9953981 C11.1045695,31.9953981 12,32.891172 12,33.9961651 L11.9912443,39.998466 L36,39.9988512 Z" id="Combined-Shape"></path>
            </g>
        </g>
    </g>
</svg>