<?xml version="1.0" encoding="UTF-8"?>
<svg width="32px" height="39px" viewBox="0 0 32 39" version="1.1" xmlns="http://www.w3.org/2000/svg" xmlns:xlink="http://www.w3.org/1999/xlink">
    <!-- Generator: Sketch 53.1 (72631) - https://sketchapp.com -->
    <title>universeIcons/Milkyway/Utility/Ticket</title>
    <desc>Created with Sketch.</desc>
    <defs>
        <path d="M19.2596374,33.1127196 C19.7615865,33.1127196 20.2635357,33.1920699 20.7558319,33.3556286 C22.8891158,34.0681617 24.2614318,36.1911866 24.166512,38.6397095 L24.1246829,38.6947689 L28.0405297,40 L37,12.6338699 L33.1147206,11.3901757 C31.7375781,13.4791932 29.3790607,14.3585239 27.2441681,13.6459908 C25.1108842,12.935077 23.7385682,10.8104328 23.833488,8.3619099 L19.9594703,7 L11,34.3677495 L14.8852794,35.6114437 C15.9438772,34.003386 17.5864736,33.1127196 19.2596374,33.1127196 M27.9691059,43 C27.6437043,43 27.3135407,42.9488018 26.9881391,42.8400056 L23.1245903,41.5488509 C21.7928247,41.1040665 20.9356693,39.8129118 20.992813,38.3345637 C21.0293215,37.3681976 20.5388381,36.5218273 19.7991447,36.2754359 C19.0546893,36.0290445 18.1642,36.4130311 17.6213349,37.2082032 C16.791164,38.4289604 15.3355871,38.9505421 14.0069961,38.5041577 L10.1450347,37.213003 C9.35137221,36.9490123 8.70850562,36.3890319 8.33389695,35.6354584 C7.95928827,34.8834847 7.8973826,34.0307146 8.16087853,33.2307427 L17.0610092,6.16289228 C17.3229178,5.36292034 17.8784815,4.71494307 18.6245242,4.33735632 C19.3721543,3.95816962 20.2181984,3.89737175 21.0118609,4.16136249 L24.876997,5.4525172 C26.2071753,5.89730159 27.0643307,7.1884563 27.007187,8.66680444 C26.9706785,9.63157059 27.4611619,10.4795408 28.199268,10.7275321 C28.9405487,10.9739235 29.8342127,10.588337 30.3770778,9.79316492 C31.208836,8.57240775 32.659651,8.05242599 33.9930039,8.49721039 L37.8549653,9.78836509 C38.6486278,10.0539558 39.2914944,10.6139361 39.6661031,11.3643098 C40.0407117,12.1178834 40.1026174,12.9722534 39.8391215,13.7706254 L30.9389908,40.8400758 C30.5040638,42.1616294 29.2802363,43 27.9691059,43" id="path-1"></path>
    </defs>
    <g id="Milkyway-Icons" stroke="none" stroke-width="1" fill="none" fill-rule="evenodd">
        <g id="Icons-in-use" transform="translate(-298.000000, -119.000000)">
            <g id="Icons/Milkyway/Utility/Ticket" transform="translate(290.000000, 115.000000)">
                <mask id="mask-2" fill="white">
                    <use xlink:href="#path-1"></use>
                </mask>
                <use id="Mask" fill="#000000" fill-rule="evenodd" transform="translate(24.000000, 23.500000) scale(-1, 1) translate(-24.000000, -23.500000) " xlink:href="#path-1"></use>
                <g id="Colour/Ink-Light" mask="url(#mask-2)" fill="#6F7881" fill-rule="evenodd">
                    <rect id="Color/Ink/Light" x="0" y="0" width="48" height="48"></rect>
                </g>
            </g>
        </g>
    </g>
</svg>