<?xml version="1.0" encoding="UTF-8"?>
<svg width="34px" height="37px" viewBox="0 0 34 37" version="1.1" xmlns="http://www.w3.org/2000/svg" xmlns:xlink="http://www.w3.org/1999/xlink">
    <!-- Generator: Sketch 53.1 (72631) - https://sketchapp.com -->
    <title>universeIcons/Milkyway/Utility/Time</title>
    <desc>Created with Sketch.</desc>
    <defs>
        <path d="M15,10.999615 C15,9.89525812 15.8877296,9 17,9 C18.1045695,9 19,9.88743329 19,10.999615 L19,19 C19,20.1045695 18.1132936,21 17.0018986,21 L12.9981014,21 C11.8945804,21 11,20.1122704 11,19 C11,17.8954305 11.8867064,17 12.9981014,17 L15,17 L15,10.999615 Z M25.4525264,32.5876462 C22.9998428,34.1166304 20.1030824,35 17,35 C13.8969176,35 11.0001572,34.1166304 8.54747364,32.5876462 L6.73110148,35.7336951 C6.17934103,36.6893722 4.96325438,37.0202368 4,36.4641016 C3.04341475,35.9118169 2.71130237,34.6961914 3.26699987,33.7336951 C3.26699987,33.7336951 5.36530399,30.1116144 5.41987571,30.040907 C2.68140714,27.1695488 1,23.2811313 1,19 C1,16.6171269 1.52090391,14.3559175 2.45505226,12.3240312 C0.952505779,11.0401338 0,9.13130173 0,7 C0,3.13400675 3.13400675,0 7,0 C9.58661584,0 11.8455556,1.40294812 13.0573882,3.48941329 C14.3185693,3.16981764 15.6394531,3 17,3 C18.2302298,3 19.4280307,3.13884437 20.5785876,3.40171788 C21.8022846,1.36373188 24.0339761,0 26.5841842,0 C30.4501775,0 33.5841842,3.13400675 33.5841842,7 C33.5841842,8.98990789 32.7538677,10.785885 31.4207957,12.0603701 C32.4328259,14.1595641 33,16.5135468 33,19 C33,23.2811313 31.3185929,27.1695488 28.5801243,30.040907 C28.634696,30.1116144 30.7330001,33.7336951 30.7330001,33.7336951 C31.2886976,34.6961914 30.9565852,35.9118169 30,36.4641016 C29.0367456,37.0202368 27.820659,36.6893722 27.2688985,35.7336951 L25.4525264,32.5876462 Z M7,4 C5.34314575,4 4,5.34314575 4,7 C4,7.68860325 4.23429547,8.33237213 4.63439059,8.84586221 C5.91038521,7.29377676 7.47289046,5.98615234 9.24103752,5.00385778 C8.68519632,4.38115661 7.87856287,4 7,4 Z M29.5841842,7 C29.5841842,5.34314575 28.2410385,4 26.5841842,4 C25.7778482,4 25.0321011,4.32106272 24.4852198,4.85525558 C26.2610063,5.796932 27.8382727,7.06322562 29.1379335,8.57505082 C29.4223238,8.11371547 29.5841842,7.5723444 29.5841842,7 Z M5,19 C5,25.627417 10.372583,31 17,31 C23.627417,31 29,25.627417 29,19 C29,12.372583 23.627417,7 17,7 C10.372583,7 5,12.372583 5,19 Z" id="path-1"></path>
    </defs>
    <g id="Milkyway-Icons" stroke="none" stroke-width="1" fill="none" fill-rule="evenodd">
        <g id="Icons-in-use" transform="translate(-1261.000000, -120.000000)">
            <g id="Icons/Milkyway/Utility/Time" transform="translate(1253.000000, 115.000000)">
                <g id="Time">
                    <g id="Colour/Ink-Light" transform="translate(8.000000, 5.000000)">
                        <mask id="mask-2" fill="white">
                            <use xlink:href="#path-1"></use>
                        </mask>
                        <use id="Mask" fill="#000000" xlink:href="#path-1"></use>
                        <g mask="url(#mask-2)" fill="#6F7881" id="Color/Ink/Light">
                            <g transform="translate(-8.000000, -5.000000)">
                                <rect x="0" y="0" width="48" height="48"></rect>
                            </g>
                        </g>
                    </g>
                </g>
            </g>
        </g>
    </g>
</svg>