<?xml version="1.0" encoding="UTF-8"?>
<svg width="40px" height="40px" viewBox="0 0 40 40" version="1.1" xmlns="http://www.w3.org/2000/svg" xmlns:xlink="http://www.w3.org/1999/xlink">
    <!-- Generator: Sketch 53.1 (72631) - https://sketchapp.com -->
    <title>universeIcons/Milkyway/Utility/Users</title>
    <desc>Created with Sketch.</desc>
    <defs>
        <path d="M25,0 C29.418278,0 33,3.5253165 33,7.87401479 C33,9.52909234 32.699754,11.8252699 32.0010461,14.0348152 C34.4185532,14.9162994 36.2964721,16.3396804 37.6478679,18.226289 C39.3399828,20.5885569 40.0000078,23.3319197 40.0000078,25.9967472 C40.0000078,26.7246349 39.6044549,27.3950367 38.9672769,27.7470683 C38.187982,28.1776175 36.8381679,28.7895725 35.0280993,29.3934888 C33.6982147,29.8371952 32.3234797,30.2023454 30.9134182,30.47144 C31.6272311,32.0364059 32.0000026,33.6287253 32.0000026,34.9956213 C32.0000026,35.7677924 31.5553827,36.4709671 30.8577421,36.8021279 C29.978138,37.2196644 28.4567152,37.8205135 26.443364,38.4156411 C23.0948978,39.4054159 19.5655229,40 16.0000392,40 C12.4345554,40 8.90518062,39.4054159 5.55671435,38.4156411 C3.54336313,37.8205135 2.02194035,37.2196644 1.14233628,36.8021279 C0.444695632,36.4709671 7.57660064e-05,35.7677924 7.57660064e-05,34.9956213 C7.57660063e-05,32.5702179 1.15023343,29.4705162 3.28727497,27.0484936 C4.62611889,25.5311108 6.28624214,24.3181651 8.25991395,23.4614628 C7.37660971,20.8094985 7,17.9952885 7,15.9979983 C7,11.0280574 11.0294373,6.99912426 16,6.99912426 C16.3525531,6.99912426 16.7003715,7.01939305 17.0423533,7.05882878 C17.45677,3.09316241 20.861382,0 25,0 Z M23.7381977,23.4671298 C25.5988296,24.2776939 27.1813083,25.4057665 28.4791793,26.8073787 C30.2991138,26.5819461 32.0711917,26.1637527 33.761989,25.5996303 C34.559475,25.3335549 35.2866173,25.0517237 35.9331329,24.7693521 C35.767544,23.2720483 35.2860607,21.7978013 34.3959116,20.5551135 C33.4741981,19.2683604 32.1545475,18.2870578 30.3419251,17.6843403 C29.092767,19.6191062 27.3490943,20.9973728 25,20.9973728 C24.8028499,20.9973728 24.6099642,20.9876648 24.4212773,20.9687348 C24.2402291,21.7975854 24.0138506,22.6402789 23.7381977,23.4671298 Z M25,16.9978732 C26.888098,16.9978732 29,12.4066542 29,7.87401479 C29,5.74840043 27.2231165,3.99949957 25,3.99949957 C22.7768835,3.99949957 21,5.74840043 21,7.87401479 C21,8.09072043 21.0048274,8.30755997 21.0142269,8.52402526 C23.4182141,10.1396237 25,12.8841111 25,15.9979983 C25,16.3122251 24.9906783,16.6466721 24.9715283,16.9975262 C24.9810243,16.9977573 24.990515,16.9978732 25,16.9978732 Z M6.28681347,29.6944371 C5.18897035,30.9386809 4.46539729,32.4405358 4.162114,33.7288274 C4.92148251,34.0187684 5.76891385,34.3077565 6.69070904,34.5802304 C9.69526509,35.4683487 12.8540495,36.0005004 16.0000392,36.0005004 C19.1460289,36.0005004 22.3048133,35.4683487 25.3093693,34.5802304 C26.2299097,34.3081274 27.0762886,34.0195551 27.8348628,33.7300115 C27.5293246,32.4519514 26.8055643,30.9530835 25.7116449,29.7102205 C24.7493368,28.6168884 23.5452867,27.7337389 22.076599,27.1033306 C20.6668721,29.3702243 18.6849547,30.9961217 16,30.9961217 C13.3130519,30.9961217 11.3301855,29.3678092 9.92026215,27.0982806 C8.45114134,27.72601 7.24761567,28.605509 6.28681347,29.6944371 Z M16,26.9966221 C18.4886582,26.9966221 21,21.4503714 21,15.9979983 C21,13.23692 18.7614237,10.9986238 16,10.9986238 C13.2385763,10.9986238 11,13.23692 11,15.9979983 C11,21.4503714 13.5113418,26.9966221 16,26.9966221 Z" id="path-1"></path>
    </defs>
    <g id="Milkyway-Icons" stroke="none" stroke-width="1" fill="none" fill-rule="evenodd">
        <g id="Icons-in-use" transform="translate(-1449.000000, -119.000000)">
            <g id="Icons/Milkyway/Utility/Users" transform="translate(1445.000000, 115.000000)">
                <g id="Users">
                    <g id="Colour/Ink-Light" transform="translate(4.000000, 4.000000)">
                        <mask id="mask-2" fill="white">
                            <use xlink:href="#path-1"></use>
                        </mask>
                        <use id="Mask" fill="#000000" xlink:href="#path-1"></use>
                        <g mask="url(#mask-2)" fill="#6F7881" id="Color/Ink/Light">
                            <g transform="translate(-4.000000, -4.000000)">
                                <rect x="0" y="0" width="48" height="48"></rect>
                            </g>
                        </g>
                    </g>
                </g>
            </g>
        </g>
    </g>
</svg>