<?xml version="1.0" encoding="UTF-8"?>
<svg width="44px" height="32px" viewBox="0 0 44 32" version="1.1" xmlns="http://www.w3.org/2000/svg" xmlns:xlink="http://www.w3.org/1999/xlink">
    <!-- Generator: Sketch 53.1 (72631) - https://sketchapp.com -->
    <title>universeIcons/Milkyway/Utility/View</title>
    <desc>Created with Sketch.</desc>
    <defs>
        <path d="M37.83549,26.0044589 C33.4943607,29.7410675 27.9925391,32 22,32 C16.0082591,32 10.5069355,29.7375757 6.16385557,25.9960218 C2.48803142,22.8293072 0,18.8274787 0,16 C0,13.1720273 2.48411314,9.17002455 6.15610513,6.00442446 C10.4969785,2.26218613 15.99976,0 22,0 C28.0010391,0 33.5043145,2.25869291 37.8432405,5.99598707 C41.5175192,9.16079327 44,13.1627946 44,16 C44,18.8367098 41.5136018,22.8385397 37.83549,26.0044589 Z M8.774621,22.9655261 C12.425061,26.1103722 17.0198904,28 22,28 C26.9820968,28 31.5776597,26.1131583 35.2260335,22.9728361 C38.1080046,20.4921916 40,17.4470464 40,16 C40,14.5508402 38.1113808,11.5062017 35.2327482,9.02671801 C31.5869811,5.8864699 26.9906222,4 22,4 C17.0113652,4 12.4157372,5.88925652 8.7679061,9.03402769 C5.89079843,11.5143632 4,14.560513 4,16 C4,17.4373739 5.89417932,20.4840318 8.774621,22.9655261 Z M30,16 C30,20.418278 26.418278,24 22,24 C17.581722,24 14,20.418278 14,16 C14,11.581722 17.581722,8 22,8 C26.418278,8 30,11.581722 30,16 Z M22,12 C19.790861,12 18,13.790861 18,16 C18,18.209139 19.790861,20 22,20 C24.209139,20 26,18.209139 26,16 L25,16 C23.3431458,16 22,14.6568542 22,13 L22,12 Z" id="path-1"></path>
    </defs>
    <g id="Milkyway-Icons" stroke="none" stroke-width="1" fill="none" fill-rule="evenodd">
        <g id="Icons-in-use" transform="translate(-98.000000, -218.000000)">
            <g id="Icons/Milkyway/Utility/View" transform="translate(96.000000, 210.000000)">
                <g id="View">
                    <g id="Colour/Ink-Light" transform="translate(2.000000, 8.000000)">
                        <mask id="mask-2" fill="white">
                            <use xlink:href="#path-1"></use>
                        </mask>
                        <use id="Mask" fill="#000000" xlink:href="#path-1"></use>
                        <g mask="url(#mask-2)" fill="#6F7881" id="Color/Ink/Light">
                            <g transform="translate(-2.000000, -8.000000)">
                                <rect x="0" y="0" width="48" height="48"></rect>
                            </g>
                        </g>
                    </g>
                </g>
            </g>
        </g>
    </g>
</svg>