<svg xmlns="http://www.w3.org/2000/svg" xmlns:xlink="http://www.w3.org/1999/xlink" viewBox="0 0 41 36"><path id="a" d="M15 24.222C15 22.995 16.093 22 17.442 22H41.79c1.349 0 2.442.986 2.442 2.222 0 1.228-1.092 2.222-2.442 2.222H17.442c-1.349 0-2.442-.986-2.442-2.222zm0-14C15 8.995 16.093 8 17.442 8H41.79c1.349 0 2.442.986 2.442 2.222 0 1.228-1.092 2.222-2.442 2.222H17.442c-1.349 0-2.442-.986-2.442-2.222zm0 28C15 36.995 16.093 36 17.442 36H41.79c1.349 0 2.442.986 2.442 2.222 0 1.228-1.092 2.222-2.442 2.222H17.442c-1.349 0-2.442-.986-2.442-2.222zM8 28a4 4 0 1 1 0-8 4 4 0 0 1 0 8zm0-14a4 4 0 1 1 0-8 4 4 0 0 1 0 8zm0 28a4 4 0 1 1 0-8 4 4 0 0 1 0 8z"/></svg>