<svg xmlns="http://www.w3.org/2000/svg" xmlns:xlink="http://www.w3.org/1999/xlink" viewBox="0 0 44 38"><path id="a" d="M22 27a6 6 0 1 0 0-12 6 6 0 0 0 0 12zM9.6 6l1.657-4.143C11.667.832 12.898 0 13.991 0h16.018c1.1 0 2.325.835 2.734 1.857L34.4 6h5.598A4 4 0 0 1 44 10.004v23.992A4.004 4.004 0 0 1 39.998 38H4.002A4 4 0 0 1 0 33.996V10.004A4.004 4.004 0 0 1 4.002 6H9.6zm-5.598 4L4 33.996 39.998 34 40 10.004 32.694 10c-.553 0-1.168-.412-1.374-.924L29.28 4H14.707l-2.025 5.062c-.207.518-.821.938-1.377.938H4.002zM12 21c0-5.523 4.477-10 10-10s10 4.477 10 10-4.477 10-10 10-10-4.477-10-10z"/></svg>