<svg xmlns="http://www.w3.org/2000/svg" xmlns:xlink="http://www.w3.org/1999/xlink" viewBox="0 0 36 44"><path id="a" d="M19 4h-7v27.997L32 32V17h-8.997A4 4 0 0 1 19 13.008V4zm4.003 9h8.283L23 4.587c0 3.228.003 8.413.003 8.413zM28 41.966c0 1.102-.9 1.996-1.991 1.997l-24.018.034A1.989 1.989 0 0 1 0 42V10c0-1.105.89-2 2.005-2H8V2c0-1.105.887-2 2.004-2h13.068c.555 0 1.324.321 1.716.715l10.502 10.57c.392.395.71 1.172.71 1.714v20.96c0 1.105-.9 2.003-1.991 2.004L28 35.972v5.994zM9.991 35.997A1.989 1.989 0 0 1 8 34V12H4.02l-.019 28H24v-4.023l-14.009.02z"/></svg>