<svg xmlns="http://www.w3.org/2000/svg" xmlns:xlink="http://www.w3.org/1999/xlink" viewBox="0 0 40 42"><path id="a" d="M36 10c0-1.105-.893-2-1.99-2A2.01 2.01 0 0 1 32 10c-1.105 0-2-.887-2-2h-4c0 1.105-.888 2-2 2-1.105 0-2-.887-2-2h-4c0 1.105-.888 2-2 2-1.105 0-2-.887-2-2h-4c0 1.105-.888 2-2 2-1.105 0-2-.887-2-2-1.109 0-2 .894-2 2v4h32v-4zM4 18v18c0 1.105.893 2 1.99 2h28.02c1.099 0 1.99-.894 1.99-2V18H4zm36-8v26c0 3.313-2.68 6-5.99 6H5.99A5.996 5.996 0 0 1 0 36V10c0-3.313 2.68-6 5.99-6L6 2c0-1.105.888-2 2-2 1.105 0 2 .887 2 2v2h4V2c0-1.105.888-2 2-2 1.105 0 2 .887 2 2v2h4V2c0-1.105.888-2 2-2 1.105 0 2 .887 2 2v2h4V2c0-1.105.888-2 2-2 1.105 0 2 .887 2 2v2c3.319 0 6 2.688 6 6z"/></svg>