<svg xmlns="http://www.w3.org/2000/svg" xmlns:xlink="http://www.w3.org/1999/xlink" viewBox="0 0 32 38"><path id="a" d="M6 34c0 .003 20.003 0 20.003 0C26 34 26 14.406 26 8H6v26zm24 0c0 2.21-1.794 4-3.997 4H5.997A3.996 3.996 0 0 1 2 34V8C.895 8 0 7.112 0 6c0-1.105.89-2 2.002-2H12a4 4 0 1 1 8 0h9.998C31.104 4 32 4.888 32 6c0 1.104-.888 2-2 2v26zM18 13.996c0-1.102.888-1.995 2-1.995 1.105 0 2 .893 2 1.995v14.01A1.993 1.993 0 0 1 20 30c-1.105 0-2-.893-2-1.995v-14.01zm-8 0c0-1.102.888-1.995 2-1.995 1.105 0 2 .893 2 1.995v14.01A1.993 1.993 0 0 1 12 30c-1.105 0-2-.893-2-1.995v-14.01z"/></svg>