<svg xmlns="http://www.w3.org/2000/svg" xmlns:xlink="http://www.w3.org/1999/xlink" viewBox="0 0 42 42"><path id="a" d="M24.84 43.192c-.464-.236-1.214-.237-1.68 0l-2.752 1.402c-1.86.946-4.147.185-5.12-1.724l-1.442-2.83c-.241-.474-.848-.934-1.358-1.027l-3.007-.55c-2.045-.373-3.47-2.39-3.182-4.518l.433-3.183c.072-.532-.16-1.275-.52-1.663l-2.138-2.302c-1.435-1.545-1.43-4.055 0-5.594L6.213 18.9c.359-.386.591-1.13.519-1.663l-.433-3.183c-.288-2.122 1.134-4.145 3.182-4.519l3.007-.549c.508-.093 1.116-.551 1.358-1.028l1.442-2.829c.967-1.899 3.262-2.67 5.12-1.724l2.752 1.402c.464.236 1.214.237 1.68 0l2.752-1.402c1.86-.946 4.147-.185 5.12 1.724l1.442 2.83c.241.474.848.934 1.358 1.027l3.007.55c2.045.373 3.47 2.39 3.182 4.518l-.433 3.183c-.072.532.16 1.275.52 1.663l2.138 2.302c1.435 1.545 1.43 4.055 0 5.594L41.787 29.1c-.359.386-.591 1.13-.519 1.663l.433 3.183c.288 2.122-1.134 4.145-3.182 4.519l-3.007.549c-.508.093-1.116.551-1.358 1.028l-1.442 2.829c-.967 1.899-3.262 2.67-5.12 1.724l-2.752-1.402zm4.55-2.13l1.442-2.829c.782-1.535 2.374-2.739 4.027-3.04 0 0 3.131-.656 3.124-.709l-.432-3.182c-.233-1.712.37-3.644 1.528-4.89 0 0 2.176-2.482 2.139-2.523l-2.139-2.301c-1.158-1.247-1.76-3.18-1.528-4.89 0 0 .374-3.33.314-3.341l-3.006-.55c-1.655-.302-3.245-1.506-4.027-3.04 0 0-1.541-2.9-1.58-2.88l-2.754 1.401c-1.51.77-3.487.769-4.996 0 0 0-2.873-1.39-2.892-1.35l-1.442 2.829c-.782 1.535-2.374 2.739-4.027 3.04l-3.006.55c-.058.01.314 3.341.314 3.341.233 1.712-.37 3.644-1.528 4.89l-2.139 2.301c-.037.041 2.139 2.523 2.139 2.523 1.158 1.247 1.76 3.18 1.528 4.89l-.432 3.182c-.008.055 3.124.708 3.124.708 1.655.303 3.245 1.507 4.027 3.041 0 0 1.541 2.9 1.58 2.88l2.754-1.401c1.51-.77 3.487-.769 4.996 0 0 0 2.873 1.39 2.892 1.35zm-9.694-10.04a1.834 1.834 0 0 1-2.654 0 1.986 1.986 0 0 1 0-2.744L28.304 16.64a1.834 1.834 0 0 1 2.654 0 1.986 1.986 0 0 1 0 2.744L19.696 31.022zm-.389-9.131c-1.555 0-2.815-1.303-2.815-2.91 0-1.607 1.26-2.91 2.815-2.91s2.816 1.303 2.816 2.91c0 1.607-1.26 2.91-2.816 2.91zm9.386 9.699c-1.555 0-2.816-1.303-2.816-2.91 0-1.607 1.26-2.91 2.816-2.91 1.555 0 2.815 1.303 2.815 2.91 0 1.607-1.26 2.91-2.815 2.91z"/></svg>