<svg xmlns="http://www.w3.org/2000/svg" xmlns:xlink="http://www.w3.org/1999/xlink" viewBox="0 0 44 32"><path id="a" d="M8.206 29.53L.876 18.765c-1.142-1.597-1.14-3.995 0-5.591L8.205 2.47C9.224 1.046 11.249 0 12.992 0h27.016A3.997 3.997 0 0 1 44 3.991V28.01A3.995 3.995 0 0 1 40.008 32H12.992c-1.747 0-3.768-1.046-4.786-2.47zM4.104 15.571c-.147.206-.147.736 0 .942l7.357 10.69c.269.377 1.079.796 1.53.796H40V4H12.992c-.45 0-1.263.42-1.531.796L4.104 15.572zM10 16a6 6 0 1 1 12 0 6 6 0 0 1-12 0zm8 0a2 2 0 1 0-4 0 2 2 0 0 0 4 0z"/></svg>