<svg xmlns="http://www.w3.org/2000/svg" xmlns:xlink="http://www.w3.org/1999/xlink" viewBox="0 0 40 40"><path id="a" d="M24 44C12.954 44 4 35.046 4 24S12.954 4 24 4s20 8.954 20 20-8.954 20-20 20zm0-4c8.837 0 16-7.163 16-16S32.837 8 24 8 8 15.163 8 24s7.163 16 16 16zm-2.45-20.478l-1.066 1.068a1.456 1.456 0 0 1-2.058.004 1.455 1.455 0 0 1 .004-2.061l4.104-4.109A1.433 1.433 0 0 1 23.562 14c.372 0 .743.14 1.03.429l4.1 4.104a1.46 1.46 0 0 1 .004 2.061 1.45 1.45 0 0 1-2.058-.004L25.55 19.5v12.126c0 1.505-.895 2.724-2 2.724s-2-1.22-2-2.724V19.522z"/></svg>