<svg xmlns="http://www.w3.org/2000/svg" xmlns:xlink="http://www.w3.org/1999/xlink" viewBox="0 0 40 36"><path id="a" d="M26 26a6.002 6.002 0 0 1-4 5.659V34c0 1.105-.888 2-2 2-1.105 0-2-.89-2-2V31.66a6.002 6.002 0 0 1 0-11.318V2c0-1.105.888-2 2-2 1.105 0 2 .89 2 2V20.34c2.33.824 4 3.047 4 5.659zm14-12a6.002 6.002 0 0 1-4 5.659V34c0 1.105-.888 2-2 2-1.105 0-2-.89-2-2V19.66A6.002 6.002 0 0 1 32 8.34V2c0-1.105.888-2 2-2 1.105 0 2 .89 2 2V8.34c2.33.824 4 3.047 4 5.659zm-28-4a6.002 6.002 0 0 1-4 5.659V34c0 1.105-.888 2-2 2-1.105 0-2-.89-2-2V15.66A6.002 6.002 0 0 1 4 4.34V2c0-1.105.888-2 2-2 1.105 0 2 .89 2 2V4.34c2.33.824 4 3.047 4 5.659zm-6 2a2 2 0 1 0 0-4 2 2 0 0 0 0 4zm14 16a2 2 0 1 0 0-4 2 2 0 0 0 0 4zm14-12a2 2 0 1 0 0-4 2 2 0 0 0 0 4z"/></svg>