<svg xmlns="http://www.w3.org/2000/svg" xmlns:xlink="http://www.w3.org/1999/xlink" viewBox="0 0 40 29"><path id="a" d="M0 2.5C0 1.12.989 0 2.222 0h35.556C39.005 0 40 1.11 40 2.5c0 1.38-.989 2.5-2.222 2.5H2.222C.995 5 0 3.89 0 2.5zm0 11.667c0-1.381.989-2.5 2.222-2.5h35.556c1.227 0 2.222 1.11 2.222 2.5 0 1.38-.989 2.5-2.222 2.5H2.222c-1.227 0-2.222-1.11-2.222-2.5zm0 11.666c0-1.38.989-2.5 2.222-2.5h35.556c1.227 0 2.222 1.11 2.222 2.5 0 1.381-.989 2.5-2.222 2.5H2.222c-1.227 0-2.222-1.11-2.222-2.5z"/></svg>