<svg xmlns="http://www.w3.org/2000/svg" xmlns:xlink="http://www.w3.org/1999/xlink" viewBox="0 0 40 40"><path id="a" d="M22 27h1c1.105 0 2 .888 2 2 0 1.105-.887 2-2 2h-6c-1.105 0-2-.888-2-2 0-1.105.887-2 2-2h1v-6h-.994A1.998 1.998 0 0 1 15 19c0-1.105.887-2 2.006-2h2.988c.557 0 1.057.223 1.418.585.364.36.588.86.588 1.415v8zm-2 13C8.954 40 0 31.046 0 20S8.954 0 20 0s20 8.954 20 20-8.954 20-20 20zm0-4c8.837 0 16-7.163 16-16S28.837 4 20 4 4 11.163 4 20s7.163 16 16 16zm0-21a3 3 0 1 1 0-6 3 3 0 0 1 0 6z"/></svg>