<svg xmlns="http://www.w3.org/2000/svg" xmlns:xlink="http://www.w3.org/1999/xlink" viewBox="0 0 44 44"><path id="a" d="M29.071 14.929a2 2 0 0 1 .007 2.822L17.75 29.078a1.99 1.99 0 0 1-2.822-.007 2 2 0 0 1-.007-2.822L26.25 14.922a1.99 1.99 0 0 1 2.822.007zM14.93 37.556a6.006 6.006 0 0 1-8.485 0 6.005 6.005 0 0 1 0-8.485l5.657-5.657a2 2 0 0 0-2.829-2.828l-5.657 5.657c-3.901 3.901-3.903 10.238 0 14.142 3.901 3.9 10.24 3.903 14.142 0l5.657-5.657a2 2 0 0 0-2.828-2.829l-5.657 5.657zm25.456-19.799c3.903-3.903 3.9-10.24 0-14.142-3.904-3.903-10.24-3.901-14.142 0l-5.657 5.657a2 2 0 0 0 2.828 2.829l5.657-5.657a6.005 6.005 0 0 1 8.485 0 6.006 6.006 0 0 1 0 8.485L31.9 20.586a2 2 0 0 0 2.829 2.828l5.657-5.657z"/></svg>