<svg xmlns="http://www.w3.org/2000/svg" xmlns:xlink="http://www.w3.org/1999/xlink" viewBox="0 0 33 42"><path id="a" d="M25.697 33.608C22.36 37.545 18.155 41 16.5 41c-1.655 0-5.86-3.455-9.197-7.392C2.773 28.266 0 22.39 0 16.4 0 7.343 7.387 0 16.5 0S33 7.343 33 16.4c0 5.989-2.774 11.866-7.303 17.208zm-10.59 1.968a33.292 33.292 0 0 0 1.393 1.066s.87-.635 1.393-1.066c1.522-1.25 3.157-2.848 4.65-4.61 3.959-4.67 6.332-9.698 6.332-14.566 0-6.793-5.54-12.3-12.375-12.3S4.125 9.607 4.125 16.4c0 4.868 2.373 9.896 6.332 14.567 1.493 1.761 3.128 3.36 4.65 4.61zM10.313 16.4c0-3.397 2.77-6.15 6.187-6.15 3.417 0 6.188 2.753 6.188 6.15 0 3.397-2.77 6.15-6.188 6.15-3.417 0-6.188-2.753-6.188-6.15zm8.25 0c0-1.132-.924-2.05-2.063-2.05-1.14 0-2.063.918-2.063 2.05 0 1.132.924 2.05 2.063 2.05 1.14 0 2.063-.918 2.063-2.05z"/></svg>