<svg xmlns="http://www.w3.org/2000/svg" xmlns:xlink="http://www.w3.org/1999/xlink" viewBox="0 0 44 36"><path id="a" d="M7.859 34.97a2 2 0 1 1-2.828-2.828l2.813-2.815a25.973 25.973 0 0 1-1.68-1.331C2.488 24.829 0 20.827 0 18c0-2.828 2.484-6.83 6.156-9.996C10.497 4.262 16 2 22 2c3.805 0 7.41.908 10.646 2.526L36.14 1.03a2 2 0 1 1 2.828 2.828l-2.806 2.807c.577.42 1.138.864 1.68 1.331C41.518 11.161 44 15.163 44 18c0 2.837-2.486 6.839-6.165 10.004C33.495 31.741 27.993 34 22 34c-3.8 0-7.404-.91-10.64-2.531l-3.501 3.5zM22 30c4.982 0 9.578-1.887 13.226-5.027C38.108 22.493 40 19.447 40 18c0-1.45-1.889-4.494-4.767-6.973a21.742 21.742 0 0 0-1.94-1.49l-5.878 5.876a6 6 0 0 1-8.002 8.002l-5.039 5.039A19.606 19.606 0 0 0 22 30zm-5.415-9.413a6 6 0 0 1 8.002-8.002L29.63 7.54A19.662 19.662 0 0 0 22 6c-4.989 0-9.584 1.89-13.232 5.034C5.89 13.514 4 16.561 4 18c0 1.437 1.894 4.484 4.775 6.966.62.534 1.268 1.032 1.94 1.49l5.87-5.87z"/></svg>