<svg xmlns="http://www.w3.org/2000/svg" xmlns:xlink="http://www.w3.org/1999/xlink" viewBox="0 0 46 34"><path id="a" d="M7.556 3.777A3.781 3.781 0 0 1 11.333 0h30.223a3.78 3.78 0 0 1 3.777 3.775V22.67a3.78 3.78 0 0 1-3.782 3.774h-3.773v3.781A3.78 3.78 0 0 1 34 34H3.778A3.78 3.78 0 0 1 0 30.225V11.33a3.78 3.78 0 0 1 3.778-3.774h3.778V3.777zM34 7.556a3.78 3.78 0 0 1 3.778 3.774v11.337h3.773c.003 0 .005-18.892.005-18.892 0 .004-30.223.003-30.223.003.002 0 .002 2.128.001 3.778H34zM3.778 11.333v18.89H34v-18.89H3.778zM5.667 25.51a.95.95 0 0 1 .935-.953h3.796a.94.94 0 0 1 .935.953v1.871a.95.95 0 0 1-.935.953H6.602a.94.94 0 0 1-.935-.953v-1.871zm20.777-11.333a.95.95 0 0 1 .936-.954h3.795a.94.94 0 0 1 .936.954v1.87a.95.95 0 0 1-.936.954H27.38a.94.94 0 0 1-.936-.953v-1.871zM18.89 26.444a5.667 5.667 0 1 1 0-11.333 5.667 5.667 0 0 1 0 11.333z"/></svg>