<svg xmlns="http://www.w3.org/2000/svg" xmlns:xlink="http://www.w3.org/1999/xlink" viewBox="0 0 33 43"><path id="a" d="M2.324 3.928A2 2 0 0 1 3.702.173c4.58 1.68 7.476 4.781 8.882 8.827H16a2 2 0 0 1 1.425.596l14.404 14.62a4.016 4.016 0 0 1-.016 5.654L20.851 40.862a4.01 4.01 0 0 1-5.656.015L.593 26.421A2 2 0 0 1 0 25V11a2 2 0 0 1 2-2h6.255c-1.141-2.293-3.052-4.016-5.93-5.072zM4 13v11.17L18 38l11-11-14-14h-1.536c.14 1.303.15 2.61.056 3.894a4 4 0 1 1-3.97-.623c.06-1.09.028-2.192-.117-3.271H4z"/></svg>