<svg xmlns="http://www.w3.org/2000/svg" xmlns:xlink="http://www.w3.org/1999/xlink" viewBox="0 0 44 41"><path id="a" d="M9.995 27C4.478 27 0 22.516 0 17 0 11.48 4.48 7 9.995 7h17.4L35.19.804C37.37-.909 40 .37 40 3.14V13a4 4 0 1 1 0 8v9.901c0 2.771-2.628 4.052-4.802 2.334L27.288 27h-2.734l2.36 9.552c.577 2.334-1.05 4.423-3.46 4.423h-6.001c-2.024 0-3.937-1.501-4.422-3.464L10.434 27h-.439zm6.92 9.552c.044.178.355.423.538.448h5.452l-2.471-10h-5.88l2.36 9.552zM13.003 19a2 2 0 1 1 0-4H20v-4H9.995A6.003 6.003 0 0 0 4 17c0 3.308 2.688 6 5.995 6H20v-4h-6.997zM36 5.297l-6.764 5.275A2 2 0 0 1 28 11h-4v12h4a2 2 0 0 1 1.24.43l6.764 5.344-.002-11.644a4.074 4.074 0 0 1 0-.259L36 5.297z"/></svg>