<svg xmlns="http://www.w3.org/2000/svg" xmlns:xlink="http://www.w3.org/1999/xlink" viewBox="0 0 40 40"><path id="a" d="M17.809 30.686c-7.101 0-12.878-5.776-12.878-12.877 0-7.101 5.777-12.878 12.878-12.878 7.098 0 12.874 5.777 12.874 12.878s-5.776 12.877-12.874 12.877m21.468 5.106L32 28.516c2.259-2.985 3.613-6.686 3.613-10.707C35.614 7.989 27.625 0 17.81 0 7.989 0-.001 7.989-.001 17.809s7.99 17.809 17.81 17.809c4.02 0 7.726-1.358 10.707-3.613l7.276 7.272c.48.483 1.111.723 1.742.723s1.263-.24 1.743-.723a2.462 2.462 0 0 0 0-3.485"/></svg>