<svg xmlns="http://www.w3.org/2000/svg" xmlns:xlink="http://www.w3.org/1999/xlink" viewBox="0 0 40 40"><path id="a" d="M7.673 18.89l.083-5.356C7.837 8.244 11.986 4 17.074 4H30.99c5.147 0 9.32 4.338 9.32 9.69v5.193c2.147.771 3.69 2.892 3.69 5.387v9.844c0 2.89-2.07 5.278-4.753 5.647v.916c0 1.835-1.431 3.323-3.197 3.323-1.765 0-3.196-1.488-3.196-3.323v-.866H15.106v.866c0 1.835-1.43 3.323-3.196 3.323-1.766 0-3.197-1.488-3.197-3.323v-.921C6.05 39.368 4 36.99 4 34.114V24.27c0-2.489 1.535-4.605 3.673-5.38zm3.73-.138c2.364.633 4.11 2.864 4.11 5.518v.116h16.975v-.116c0-2.649 1.738-4.875 4.094-5.514V13.69c0-3.21-2.504-5.813-5.592-5.813H17.074c-3.053 0-5.542 2.546-5.59 5.72l-.08 5.156zm.456 9.432V24.27c0-1.05-.818-1.9-1.827-1.9H9.48c-1.009 0-1.827.85-1.827 1.9v9.844c0 1.049.818 1.899 1.827 1.899h29.04c1.009 0 1.827-.85 1.827-1.9V24.27c0-1.05-.818-1.9-1.827-1.9h-.552c-1.009 0-1.827.85-1.827 1.9v3.914H11.86z"/></svg>