<svg xmlns="http://www.w3.org/2000/svg" xmlns:xlink="http://www.w3.org/1999/xlink" viewBox="0 0 38 40"><path id="a" d="M25.747 6.593l1.486.867s4.436-.774 4.694-.798c1.342-.165 2.787.556 3.463 1.726l1.861 3.224c.678 1.175.581 2.793-.203 3.817-.183.256-3.066 3.71-3.066 3.71S34 19.394 34 20c0 .292-.025.873-.025.873s2.89 3.442 3.04 3.653c.813 1.08.912 2.692.236 3.862l-1.861 3.224c-.678 1.175-2.129 1.9-3.42 1.73-.012 0-4.76-.804-4.76-.804l-1.463.862s-1.55 4.23-1.66 4.464C23.56 39.11 22.213 40 20.863 40h-3.724c-1.356 0-2.709-.894-3.203-2.085-.131-.286-1.687-4.53-1.687-4.53l-1.49-.85s-4.427.78-4.685.803c-1.342.165-2.787-.556-3.463-1.726L.75 28.388C.07 27.213.168 25.595.953 24.57c.182-.257 3.068-3.713 3.068-3.713S4 20.606 4 20c0-.286.024-.856.024-.856s-2.89-3.458-3.038-3.67c-.814-1.08-.913-2.692-.237-3.862L2.61 8.388c.678-1.175 2.129-1.9 3.408-1.732.313.03 4.784.808 4.784.808l1.468-.873s1.534-4.22 1.642-4.455C14.441.891 15.788 0 17.138 0h3.724c1.356 0 2.709.893 3.203 2.085.131.286 1.682 4.508 1.682 4.508zM22.45 9.509l-.268-.899c-.39-1.307-1.498-4.27-1.616-4.547-.068-.16-3.061-.16-3.13 0-.118.278-1.225 3.24-1.615 4.547l-.27.899-.862.368c-.815.348-1.585.793-2.294 1.326l-.75.565-.914-.217c-1.328-.315-4.45-.838-4.749-.875-.173-.02-1.67 2.571-1.565 2.711.181.24 2.195 2.682 3.131 3.674l.644.681-.112.93a11.133 11.133 0 0 0 0 2.655l.112.93-.644.682c-.936.992-2.95 3.433-3.13 3.674-.106.14 1.39 2.732 1.564 2.71.3-.036 3.42-.559 4.749-.874l.914-.217.75.565c.709.533 1.479.978 2.294 1.326l.863.368.269.9c.39 1.306 1.497 4.268 1.615 4.546.069.16 3.062.16 3.13 0 .118-.278 1.225-3.24 1.616-4.547l.268-.899.863-.368a10.986 10.986 0 0 0 2.294-1.327l.75-.564.915.217c1.327.315 4.449.838 4.748.874.102.013 1.67-2.57 1.565-2.71-.181-.241-2.194-2.683-3.131-3.675l-.644-.68.112-.931a11.133 11.133 0 0 0 0-2.654l-.112-.93.644-.681c.937-.992 2.95-3.434 3.13-3.675.106-.14-1.39-2.732-1.564-2.71-.3.036-3.42.559-4.748.874l-.914.217-.75-.564a10.986 10.986 0 0 0-2.295-1.327l-.863-.368zM19 26a6 6 0 1 1 0-12 6 6 0 0 1 0 12zm0-4a2 2 0 1 0 0-4 2 2 0 0 0 0 4z"/></svg>