<svg xmlns="http://www.w3.org/2000/svg" xmlns:xlink="http://www.w3.org/1999/xlink" viewBox="0 0 42 39"><path id="a" d="M19.192 29.875l-7.356 3.869 1.405-8.192c.205-1.197-.253-2.612-1.125-3.462l-5.95-5.8 8.223-1.195c1.202-.175 2.406-1.048 2.945-2.14l3.68-7.446 3.675 7.446c.537 1.09 1.74 1.965 2.945 2.14l8.214 1.204-5.941 5.791c-.87.848-1.33 2.262-1.125 3.462l1.423 8.2-7.374-3.877c-1.074-.565-2.562-.566-3.64 0zm10.949 8.362c2.444 1.285 4.802-.426 4.335-3.15l-1.752-10.211c.017.1 7.394-7.154 7.394-7.154 1.977-1.927 1.079-4.698-1.655-5.096l-10.254-1.49c.1.015-4.518-9.242-4.518-9.242-1.222-2.476-4.136-2.478-5.359 0l-4.585 9.291c.044-.09-10.187 1.441-10.187 1.441-2.732.397-3.634 3.168-1.655 5.096l7.42 7.232c-.073-.07-1.778 10.134-1.778 10.134-.467 2.72 1.89 4.435 4.335 3.15l9.17-4.822c-.088.047 9.089 4.821 9.089 4.821z"/></svg>