<svg xmlns="http://www.w3.org/2000/svg" xmlns:xlink="http://www.w3.org/1999/xlink" viewBox="0 0 32 39"><path id="a" d="M19.26 33.113c.502 0 1.004.08 1.496.243 2.133.712 3.505 2.835 3.41 5.284l-.041.055L28.04 40 37 12.634l-3.885-1.244c-1.377 2.09-3.736 2.969-5.87 2.256-2.134-.71-3.506-2.836-3.412-5.284L19.96 7 11 34.368l3.885 1.243c1.059-1.608 2.701-2.498 4.375-2.498M27.97 43c-.326 0-.656-.051-.982-.16l-3.863-1.291c-1.332-.445-2.19-1.736-2.132-3.214.036-.967-.454-1.813-1.194-2.06-.744-.246-1.635.138-2.178.933-.83 1.221-2.285 1.743-3.614 1.296l-3.862-1.291a3.105 3.105 0 0 1-1.811-1.578 3.148 3.148 0 0 1-.173-2.404l8.9-27.068c.262-.8.817-1.448 1.564-1.826a3.083 3.083 0 0 1 2.387-.176l3.865 1.292c1.33.444 2.187 1.735 2.13 3.214-.036.965.454 1.813 1.192 2.06.742.247 1.635-.139 2.178-.934.832-1.22 2.283-1.74 3.616-1.296l3.862 1.291a3.118 3.118 0 0 1 1.811 1.576c.375.754.437 1.608.173 2.407l-8.9 27.07A3.134 3.134 0 0 1 27.969 43"/></svg>