<svg xmlns="http://www.w3.org/2000/svg" xmlns:xlink="http://www.w3.org/1999/xlink" viewBox="0 0 34 37"><path id="a" d="M15 11c0-1.105.888-2 2-2 1.105 0 2 .887 2 2v8c0 1.105-.887 2-1.998 2h-4.004A1.994 1.994 0 0 1 11 19c0-1.105.887-2 1.998-2H15v-6zm10.453 21.588A15.925 15.925 0 0 1 17 35c-3.103 0-6-.883-8.453-2.412l-1.816 3.146a1.994 1.994 0 0 1-2.731.73 1.994 1.994 0 0 1-.733-2.73s2.098-3.622 2.153-3.693A15.946 15.946 0 0 1 1 19c0-2.383.52-4.644 1.455-6.676a7 7 0 1 1 10.602-8.835C14.32 3.17 15.64 3 17 3c1.23 0 2.428.139 3.579.402A7 7 0 1 1 31.42 12.06 15.937 15.937 0 0 1 33 19c0 4.281-1.681 8.17-4.42 11.04.055.072 2.153 3.694 2.153 3.694a1.994 1.994 0 0 1-.733 2.73 1.994 1.994 0 0 1-2.731-.73l-1.816-3.146zM7 4a3 3 0 0 0-2.366 4.846 16.074 16.074 0 0 1 4.607-3.842A3.001 3.001 0 0 0 7 4zm22.584 3a3 3 0 0 0-5.099-2.145 16.066 16.066 0 0 1 4.653 3.72A2.996 2.996 0 0 0 29.584 7zM5 19c0 6.627 5.373 12 12 12s12-5.373 12-12S23.627 7 17 7 5 12.373 5 19z"/></svg>