<svg xmlns="http://www.w3.org/2000/svg" xmlns:xlink="http://www.w3.org/1999/xlink" viewBox="0 0 40 40"><path id="a" d="M25 0c4.418 0 8 3.525 8 7.874 0 1.655-.3 3.951-.999 6.16 2.418.882 4.295 2.306 5.647 4.192C39.34 20.59 40 23.332 40 25.996a2 2 0 0 1-1.033 1.751c-.779.43-2.129 1.043-3.939 1.646-1.33.444-2.705.81-4.115 1.078C31.627 32.036 32 33.63 32 34.996a2 2 0 0 1-1.142 1.806c-.88.418-2.401 1.019-4.415 1.614C23.095 39.406 19.566 40 16 40c-3.565 0-7.095-.595-10.443-1.584-2.014-.595-3.535-1.196-4.415-1.614A2 2 0 0 1 0 34.996c0-2.426 1.15-5.525 3.287-7.948 1.34-1.517 3-2.73 4.973-3.587C7.377 20.81 7 17.995 7 15.998a9 9 0 0 1 10.042-8.94C17.457 3.094 20.862 0 25 0zm-1.262 23.467c1.86.81 3.443 1.939 4.741 3.34a27.337 27.337 0 0 0 5.283-1.207 26.01 26.01 0 0 0 2.171-.83c-.165-1.498-.647-2.972-1.537-4.215-.922-1.287-2.241-2.268-4.054-2.87-1.25 1.934-2.993 3.312-5.342 3.312-.197 0-.39-.01-.579-.028a24.38 24.38 0 0 1-.683 2.498zM25 16.997c1.888 0 4-4.59 4-9.123 0-2.126-1.777-3.875-4-3.875s-4 1.75-4 3.875c0 .217.005.434.014.65A8.99 8.99 0 0 1 25 15.998c0 .314-.01.649-.028 1H25zM6.287 29.695c-1.098 1.245-1.822 2.747-2.125 4.035.76.29 1.607.579 2.529.851C9.695 35.468 12.854 36 16 36c3.146 0 6.305-.532 9.31-1.42.92-.272 1.766-.56 2.525-.85-.306-1.278-1.03-2.777-2.123-4.02-.963-1.093-2.167-1.976-3.635-2.607-1.41 2.267-3.392 3.893-6.077 3.893-2.687 0-4.67-1.628-6.08-3.898-1.469.628-2.672 1.508-3.633 2.596zM16 26.997c2.489 0 5-5.547 5-10.999a5 5 0 0 0-10 0c0 5.452 2.511 10.999 5 10.999z"/></svg>