<svg xmlns="http://www.w3.org/2000/svg" xmlns:xlink="http://www.w3.org/1999/xlink" viewBox="0 0 44 32"><path id="a" d="M37.835 26.004C33.495 29.741 27.993 32 22 32c-5.992 0-11.493-2.262-15.836-6.004C2.488 22.829 0 18.827 0 16c0-2.828 2.484-6.83 6.156-9.996C10.497 2.262 16 0 22 0c6.001 0 11.504 2.259 15.843 5.996C41.518 9.161 44 13.163 44 16c0 2.837-2.486 6.839-6.165 10.004zm-29.06-3.038C12.425 26.11 17.02 28 22 28c4.982 0 9.578-1.887 13.226-5.027C38.108 20.493 40 17.447 40 16c0-1.45-1.889-4.494-4.767-6.973C31.587 5.887 26.99 4 22 4c-4.989 0-9.584 1.89-13.232 5.034C5.89 11.514 4 14.561 4 16c0 1.437 1.894 4.484 4.775 6.966zM30 16a8 8 0 1 1-16 0 8 8 0 0 1 16 0zm-8-4a4 4 0 1 0 4 4h-1a3 3 0 0 1-3-3v-1z"/></svg>