<svg width="107" height="16" viewBox="0 0 107 16" xmlns="http://www.w3.org/2000/svg" xmlns:xlink="http://www.w3.org/1999/xlink"><defs><path d="M68.507 3.04c-.396.71-.711 1.8-.711 3.458 0 3.46.079 8.097.079 8.255 0 .237.079.395.394.474.238.079.783.159 1.574.159.869 0 1.553-.08 1.792-.16.315-.158.297-.394.297-.394V6.736c0-1.572 1.344-2.39 2.927-2.169l.091.026c1.099.22 1.254.167 1.58-.308.316-.544.938-1.879 1.175-2.66.079-.237-.061-.421-.396-.544-.237-.08-.869-.317-1.73-.475A10.874 10.874 0 0 0 73.79.45c-2.16 0-4.114.738-5.282 2.59z" id="a"/><path d="M.8.597C.473.685.411.852.411 1.09c0 .078-.078 4.54-.079 7.907v.04c0 1.641.317 2.493.711 3.204 1.178 2.047 3.224 3.136 5.976 3.136h.078c2.759 0 4.875-1.098 6.044-3.136.396-.702.711-1.563.711-3.205 0-3.371-.079-7.807-.079-7.964a.479.479 0 0 0-.378-.475c-.227-.061-.808-.131-1.589-.131-.861 0-1.563.061-1.802.14-.315.07-.315.466-.315.466.079 2.748 0 7.332 0 7.727 0 1.65-1.178 2.511-2.67 2.511-1.495 0-2.672-.86-2.68-2.51 0-.388.008-5.04.008-7.79 0 0 0-.272-.395-.404C3.733.527 3.242.45 2.372.45 1.66.449 1.124.5.799.597z" id="b"/><path d="M48.266 1.238c-.23.317-2.504 6.21-3.127 7.859-.08.08-.318.08-.318 0-.473-1.255-2.82-7.463-2.977-7.859-.317-.623-.475-.78-2.118-.78-.781 0-1.88.07-1.88.544 0 .474 1.335 4.003 2.82 7.85 1.406 3.608 2.47 5.9 2.741 6.216.273.326 1.029.309 1.74.318.712 0 1.432.008 1.617-.309.246-.412 1.352-2.677 2.758-6.296 1.484-3.845 2.741-7.305 2.741-7.78 0-.543-1.099-.543-1.88-.543-1.643 0-1.802.148-2.117.78z" id="c"/><path d="M22.692.449c-2.663 0-4.77 1.062-6.097 3.187-.387.71-.703 1.616-.703 3.275 0 3.398.08 7.797.08 7.956 0 .159.184.35.385.395.202.044.862.115 1.643.115.86 0 1.352-.018 1.643-.097.28-.088.305-.457.305-.457-.079-2.766.008-7.508.008-7.903 0-1.65 1.26-2.68 2.744-2.68 1.564 0 2.672 1.02 2.672 2.68v7.912s.008.28.297.395c.3.105.854.141 1.714.141.781 0 1.326 0 1.565-.08.306-.078.385-.228.385-.465 0-.079.08-4.575.08-7.965 0-1.65-.317-2.502-.704-3.214C27.532 1.511 25.503.45 22.763.45h-.07z" id="d"/><path d="M32.426.536c-.308.08-.387.237-.387.474 0 .08-.079.95-.079 6.753 0 6.05.08 6.832.08 6.91 0 .23.07.501.386.58.194.045.922.124 1.705.124.781 0 1.335-.045 1.571-.124.29-.123.388-.236.388-.474 0-.08.078-.983.078-7.025 0-5.804-.078-6.673-.078-6.752 0-.238-.088-.431-.388-.475-.227-.035-.94-.078-1.713-.078-.781 0-1.326 0-1.563.087z" id="e"/><path d="M78.477 5.243c0 3.293 3.031 4.145 5.94 4.382l.272.026c1.099.079 2.284.15 2.284 1.247 0 .86-.482 1.335-1.818 1.335-1.573 0-3.462-.712-4.719-1.335-.632-.317-1.018-.632-1.176-.632-.159 0-.712.474-1.177 1.097-.396.633-.632 1.335-.475 1.572.396.475 1.652 1.098 2.908 1.572 1.02.395 2.672.861 4.401.861 3.927 0 6.519-1.8 6.519-4.874.159-3.767-3.698-4.39-6.528-4.47-.632 0-1.888-.158-1.888-1.246 0-1.098.8-1.177 1.66-1.177.545 0 1.652.158 3.146.545 1.018.315 1.73.632 1.968.71.236.158.71-.474 1.098-1.255.386-.782.473-1.493.237-1.573-.396-.236-3.461-1.57-6.677-1.57-2.829 0-5.975 1.255-5.975 4.785z" id="f"/><path d="M92.842 7.596c0-4.32 2.741-7.147 6.967-7.147 3.602 0 6.826 1.888 6.826 7.147 0 .553-.01.703.017 1.247-.008.35-.28.474-.624.474-.79 0-2.512.08-4.936.08-1.495 0-3.33-.08-4.033-.08-.105 0-.123.036-.114.114.07.474.923 2.485 3.347 2.485 1.018 0 2.74-.315 3.909-.86.387-.158.527-.097.624 0 .176.176.466.623.781 1.256.238.544.397.939.475 1.177.07.315 0 .395-.475.632-1.414.711-2.898 1.256-5.56 1.256-2.741 0-7.204-2.442-7.204-7.781zm4.067-1.29l5.93.017c.061 0 .185-.017.176-.176 0-1.493-1.396-2.66-3.119-2.66-1.722 0-3.145 1.167-3.145 2.66 0 0 0 .159.158.159z" id="g"/><path d="M52.254 7.684c0-4.32 2.742-7.148 6.966-7.148 3.602 0 6.827 1.888 6.827 7.148 0 .553-.009.702.018 1.247-.009.35-.282.474-.624.474-.79 0-2.513.079-4.938.079-1.493 0-3.33-.079-4.032-.079-.106 0-.123.035-.115.114.072.474.923 2.485 3.348 2.485 1.02 0 2.74-.316 3.91-.86.386-.158.526-.097.622 0 .176.175.466.623.784 1.256.236.544.394.939.473 1.176.07.316 0 .395-.473.633-1.416.711-2.9 1.255-5.562 1.255-2.742 0-7.204-2.44-7.204-7.78zm4.068-1.29l5.93.017c.06 0 .184-.017.184-.167 0-1.493-1.406-2.67-3.128-2.67-1.721 0-3.144 1.168-3.144 2.66 0 0 0 .16.158.16z" id="h"/></defs><g fill="#FFF" fill-rule="evenodd"><use xlink:href="#a"/><use xlink:href="#b"/><use xlink:href="#c"/><use xlink:href="#d"/><use xlink:href="#e"/><use xlink:href="#f"/><use xlink:href="#g"/><use xlink:href="#h"/></g></svg>
