<?xml version="1.0" encoding="UTF-8"?>
<svg width="18px" height="18px" viewBox="0 0 18 18" version="1.1" xmlns="http://www.w3.org/2000/svg" xmlns:xlink="http://www.w3.org/1999/xlink">
    <!-- Generator: Sketch 53 (72520) - https://sketchapp.com -->
    <title>1_active</title>
    <desc>Created with Sketch.</desc>
    <g id="Page-1" stroke="none" stroke-width="1" fill="none" fill-rule="evenodd">
        <g id="1_active" fill="#1C232B">
            <path d="M5.396,11.296 L9.14,11.296 L9.14,13 L10.556,13 L10.556,11.296 L11.864,11.296 L11.864,10.024 L10.556,10.024 L10.556,5.224 L8.708,5.224 L5.396,9.736 Z M9.14,10.024 L6.692,10.024 L9.14,6.676 Z M8.931,17.207 C4.36029141,17.207 0.655,13.5017086 0.655,8.931 C0.655,4.36029141 4.36029141,0.655 8.931,0.655 C13.5017086,0.655 17.207,4.36029141 17.207,8.931 C17.207,13.5017086 13.5017086,17.207 8.931,17.207 Z M8.931,15.552 C12.5876773,15.552 15.552,12.5876773 15.552,8.931 C15.552,5.27432267 12.5876773,2.31 8.931,2.31 C5.27432267,2.31 2.31,5.27432267 2.31,8.931 C2.31,12.5876773 5.27432267,15.552 8.931,15.552 Z" id="Shape"></path>
        </g>
    </g>
</svg>