<svg width="18" height="18" viewBox="0 0 18 18" xmlns="http://www.w3.org/2000/svg"><path d="M7.826 7.476c-.011-.124-.034-.26-.034-.374 0-.76.42-1.36 1.282-1.36.827 0 1.236.544 1.236 1.145 0 .533-.284.975-.942 1.383l-1.213.76c-1.281.794-1.724 1.78-1.746 3.039h5.318v-1.202h-3.64c.102-.363.397-.624.748-.84l1.43-.884c.884-.544 1.417-1.327 1.417-2.28 0-1.258-.964-2.312-2.586-2.312-1.667 0-2.62 1.145-2.62 2.415 0 .147.023.317.035.42l1.315.09zm1.105 9.73a8.276 8.276 0 1 1 0-16.55 8.276 8.276 0 0 1 0 16.55zm0-1.654a6.62 6.62 0 1 0 0-13.242 6.62 6.62 0 0 0 0 13.242z" fill="#1C232B" fill-rule="evenodd"/></svg>