<svg width="18" height="18" viewBox="0 0 18 18" xmlns="http://www.w3.org/2000/svg"><path d="M8.189 9.014c.113-.056.34-.124.691-.124.624 0 1.304.362 1.304 1.213 0 .67-.498 1.247-1.394 1.247-.817 0-1.43-.578-1.463-1.428L6 10.194c.09 1.224 1.1 2.324 2.801 2.324 1.746 0 2.756-1.145 2.756-2.404 0-1.417-1.1-2.211-2.2-2.234l1.995-1.746V5H6.25v1.19h3.346l-2.03 1.815.624 1.01zm.891 8.466a8.4 8.4 0 1 1 0-16.8 8.4 8.4 0 0 1 0 16.8zm0-1.68a6.72 6.72 0 1 0 0-13.44 6.72 6.72 0 0 0 0 13.44z" fill="#A9B0B7" fill-rule="evenodd"/></svg>