<?xml version="1.0" encoding="UTF-8"?><svg width="18px" height="18px" viewBox="0 0 18 18" version="1.1" xmlns="http://www.w3.org/2000/svg" xmlns:xlink="http://www.w3.org/1999/xlink"><path d="M5.396,11.296 L9.14,11.296 L9.14,13 L10.556,13 L10.556,11.296 L11.864,11.296 L11.864,10.024 L10.556,10.024 L10.556,5.224 L8.708,5.224 L5.396,9.736 Z M9.14,10.024 L6.692,10.024 L9.14,6.676 Z M9.08,17.48 C4.4408081,17.48 0.68,13.7191919 0.68,9.08 C0.68,4.4408081 4.4408081,0.68 9.08,0.68 C13.7191919,0.68 17.48,4.4408081 17.48,9.08 C17.48,13.7191919 13.7191919,17.48 9.08,17.48 Z M9.08,15.8 C12.7913535,15.8 15.8,12.7913535 15.8,9.08 C15.8,5.36864648 12.7913535,2.36 9.08,2.36 C5.36864648,2.36 2.36,5.36864648 2.36,9.08 C2.36,12.7913535 5.36864648,15.8 9.08,15.8 Z" id="Shape"></path></svg>
